<?xml version="1.0" encoding="UTF-8"?>
<svg version="1.1" xmlns="http://www.w3.org/2000/svg" width="430" height="960">
<path d="M0 0 C141.9 0 283.8 0 430 0 C430 154.44 430 308.88 430 468 C422 462 422 462 418.3515625 459.2109375 C398.09360336 443.74820994 377.05846917 429.20718928 352.515625 421.60546875 C329.10011929 414.26304506 307.24613418 403.18014416 286 391 C285.04270996 390.45279297 284.08541992 389.90558594 283.09912109 389.34179688 C271.63462266 382.75826094 260.68912856 376.03198878 250.28125 367.8671875 C217.80792045 342.81383916 180.42468028 331.62663736 140.03530884 328.38473511 C111.4492066 326.05965166 83.81674864 319.71809396 58 307 C57.33000977 306.67386719 56.66001953 306.34773438 55.96972656 306.01171875 C43.49522374 299.87531462 32.65630597 292.13612825 22.65295124 282.42055988 C19.97482954 279.84737319 17.17423896 277.50034655 14.2909193 275.16051769 C6.16624078 268.26122561 -0.75036164 262.01634793 -2.10914487 251.03184825 C-2.42345612 245.32978467 -2.32563279 239.68111964 -2.15698242 233.97583008 C-2.15114984 231.37032201 -2.15371928 228.76478398 -2.16392231 226.15928936 C-2.17393492 219.93274394 -2.08713115 213.71149828 -1.96439706 207.48630739 C-1.82645098 200.27049126 -1.81243792 193.05646008 -1.79748535 185.8392334 C-1.69812368 166.82949452 -1.43285761 147.8209151 -1.1875 128.8125 C-0.795625 86.304375 -0.40375 43.79625 0 0 Z " fill="#0F3C28" transform="translate(0,0)"/>
<path d="M0 0 C2.3270241 2.32300506 4.65279298 4.64655573 6.95703125 6.9921875 C11.45965831 11.56116907 16.11941656 15.84031768 21 20 C21.93457031 20.81210937 22.86914062 21.62421875 23.83203125 22.4609375 C53.98940407 48.51846585 83.46978279 63.25067194 122.66918945 70.46508789 C136.45556482 73.00481442 150.16020686 75.81166573 163.5 80.1875 C164.40669434 80.48156738 165.31338867 80.77563477 166.24755859 81.07861328 C184.58496297 87.09123507 202.63094522 93.55139969 220 102 C220.84481934 102.40943848 221.68963867 102.81887695 222.56005859 103.24072266 C233.89355045 108.79818664 244.51995972 115.03768382 254.89819336 122.22924805 C259.78837655 125.61028883 264.61277569 128.47686963 270 131 C269.28714844 130.38253906 268.57429688 129.76507813 267.83984375 129.12890625 C262.60350977 124.49866208 257.88597957 120.00079577 253.74609375 114.33203125 C251.7655972 111.68693854 249.60578847 109.24299058 247.4375 106.75 C231.40817722 87.30145308 231.685794 61.18309542 233.92578125 37.36938477 C235.05044666 26.11634052 236.32113144 15.00046025 239 4 C246.30250824 3.66238404 253.2603198 3.98937478 260.4375 5.3125 C261.09878906 5.43020752 261.76007813 5.54791504 262.44140625 5.66918945 C266.69203342 6.50974237 270.21402196 7.91098275 274 10 C274 10.66 274 11.32 274 12 C273.01 12 272.02 12 271 12 C270.67 13.32 270.34 14.64 270 16 C269.67 14.68 269.34 13.36 269 12 C267.515 15.96 267.515 15.96 266 20 C265.34 20 264.68 20 264 20 C265.485 15.05 265.485 15.05 267 10 C265.68 10.33 264.36 10.66 263 11 C261.43491598 14.05340696 261.43491598 14.05340696 260.3125 17.75 C259.68794922 19.59851563 259.68794922 19.59851563 259.05078125 21.484375 C256.99392483 27.20506306 256.99392483 27.20506306 258.4375 32.6875 C258.953125 33.450625 259.46875 34.21375 260 35 C260 35.66 260 36.32 260 37 C260.66 37 261.32 37 262 37 C263.485 32.545 263.485 32.545 265 28 C266.2057132 32.82285279 265.20629907 33.77126012 263 38 C263.33 38.66 263.66 39.32 264 40 C265.12752649 37.77208002 266.25208139 35.54274113 267.375 33.3125 C267.69210937 32.68666016 268.00921875 32.06082031 268.3359375 31.41601562 C270.05472081 27.99635299 271.64469217 24.57992926 273 21 C273.66 21 274.32 21 275 21 C273.112555 27.39634138 270.61013178 32.78145664 267.20703125 38.51953125 C265.70829429 41.13970005 265.70829429 41.13970005 266 45 C267.4166747 46.7511573 267.4166747 46.7511573 269 48 C273.7919764 38.75833123 277.22974015 29.9060355 279.38671875 19.6875 C280 17 280 17 281 15 C279.35 14.34 277.7 13.68 276 13 C276 12.34 276 11.68 276 11 C288.98223877 12.8220686 300.35237289 20.46468754 310 29 C309.34 29.66 308.68 30.32 308 31 C307.34 30.67 306.68 30.34 306 30 C305.690625 31.27875 305.38125 32.5575 305.0625 33.875 C304.52394756 36.10101675 304.0263 37.94739999 303 40 C304.1446875 39.505 304.1446875 39.505 305.3125 39 C308 38 308 38 311 38 C310.67 35.69 310.34 33.38 310 31 C314.16036483 32.32960113 316.06772922 33.86021231 318.625 37.375 C319.19476563 38.14585937 319.76453125 38.91671875 320.3515625 39.7109375 C320.89554687 40.46632813 321.43953125 41.22171875 322 42 C322.56460937 42.69351563 323.12921875 43.38703125 323.7109375 44.1015625 C325 46 325 46 325 49 C321.24623848 47.74874616 320.75926711 46.4347596 319 43 C319 42.34 319 41.68 319 41 C318.01 41 317.02 41 316 41 C315.67 42.32 315.34 43.64 315 45 C314.34 45 313.68 45 313 45 C312.67 44.34 312.34 43.68 312 43 C310.02 46.63 308.04 50.26 306 54 C305 52 305 52 305.55859375 50.0546875 C305.84863281 49.33539063 306.13867188 48.61609375 306.4375 47.875 C306.86869141 46.78832031 306.86869141 46.78832031 307.30859375 45.6796875 C307.65083984 44.84824219 307.65083984 44.84824219 308 44 C304.2168174 44.51124089 302.48651503 45.12169018 300 48 C298.00845615 51.10085239 296.33457232 54.36213206 294.625 57.625 C294.13644531 58.48996094 293.64789063 59.35492188 293.14453125 60.24609375 C290.54953599 65.14474542 290.54953599 65.14474542 290.34008789 70.54760742 C291.08581131 72.8030608 291.95370018 74.86996418 293 77 C293.391875 78.010625 293.78375 79.02125 294.1875 80.0625 C294.5896875 81.0215625 294.5896875 81.0215625 295 82 C296.65 79.69 298.3 77.38 300 75 C300.66 75.33 301.32 75.66 302 76 C301.566875 76.49628906 301.13375 76.99257813 300.6875 77.50390625 C296.73898734 82.17763736 296.73898734 82.17763736 295.625 88 C295.74875 88.99 295.8725 89.98 296 91 C302.49855661 84.27805551 309.01296599 75.96110202 312 67 C312.66 67 313.32 67 314 67 C312.69643661 71.45054974 310.97522249 74.91700271 308.375 78.75 C307.67246094 79.78769531 306.96992188 80.82539063 306.24609375 81.89453125 C303.4935865 85.7001717 300.50249357 89.24768677 297.37109375 92.74609375 C295.7127084 94.96124226 295.7127084 94.96124226 296.28515625 97.78515625 C296.63900391 98.88150391 296.63900391 98.88150391 297 100 C308.41599215 91.72573866 314.6677119 78.2573551 321 66 C321.33 66.66 321.66 67.32 322 68 C320.96234778 70.54255134 319.86506736 72.93230659 318.625 75.375 C318.2643042 76.09018799 317.9036084 76.80537598 317.53198242 77.54223633 C313.47533073 85.34643662 308.60296602 92.51986237 302.25 98.65625 C299.73317572 100.8020518 299.73317572 100.8020518 299.6875 103.8125 C299.790625 104.534375 299.89375 105.25625 300 106 C305.15689605 102.11498414 308.56611996 97.81502925 312.1875 92.5 C312.70763672 91.75363281 313.22777344 91.00726563 313.76367188 90.23828125 C316.30926808 86.56456003 318.76370099 82.87317767 321 79 C321.33 79.99 321.66 80.98 322 82 C317.27154326 90.9591812 310.1448798 99.8551202 303 107 C302.83312552 109.58354218 302.83312552 109.58354218 303 112 C307.09457279 110.6351424 308.71667285 107.78245715 311.1875 104.4375 C311.65091797 103.82197266 312.11433594 103.20644531 312.59179688 102.57226562 C313.73423225 101.05294435 314.86796157 99.52708373 316 98 C316.66 98.33 317.32 98.66 318 99 C317.1283774 100.18998121 316.25245401 101.37681214 315.375 102.5625 C314.83488281 103.2946875 314.29476563 104.026875 313.73828125 104.78125 C312.11763798 106.84984636 310.39026418 108.6790896 308.5625 110.5625 C306.00285735 113.44791535 305.99229818 113.7573928 306.125 117.9375 C306.41375 118.948125 306.7025 119.95875 307 121 C311.21814817 117.0299782 314.61227103 112.69159716 318 108 C318.33 108.66 318.66 109.32 319 110 C317.54927753 112.00593724 316.09008971 114.00460174 314.625 116 C314.2125 116.57234375 313.8 117.1446875 313.375 117.734375 C312.29828281 119.19315312 311.15333422 120.60100976 310 122 C309.34 122 308.68 122 308 122 C308.33 123.32 308.66 124.64 309 126 C319.71463063 115.6083281 330.44616666 101.42047225 335 87 C335.03523377 84.77892589 335.03523377 84.77892589 334.625 82.6875 C334.41875 81.470625 334.2125 80.25375 334 79 C333.38511719 80.06541016 333.38511719 80.06541016 332.7578125 81.15234375 C331.94957031 82.53099609 331.94957031 82.53099609 331.125 83.9375 C330.59132813 84.85402344 330.05765625 85.77054687 329.5078125 86.71484375 C328 89 328 89 326 90 C327.50186444 85.76747293 329.65026713 82.1001395 331.9765625 78.28125 C333.14403815 75.67893787 333.18873118 73.82103444 333 71 C332.34 71 331.68 71 331 71 C331 71.66 331 72.32 331 73 C330.34 73 329.68 73 329 73 C329 71.35 329 69.7 329 68 C329.66 68 330.32 68 331 68 C330.54738642 66.56068883 330.08767021 65.12361001 329.625 63.6875 C329.24214844 62.48673828 329.24214844 62.48673828 328.8515625 61.26171875 C328.01168189 58.77275472 328.01168189 58.77275472 326 56 C324.515 59.96 324.515 59.96 323 64 C321.78934835 60.36804504 322.37215185 58.93468371 323.4375 55.3125 C323.72496094 54.31863281 324.01242187 53.32476562 324.30859375 52.30078125 C324.65083984 51.16189453 324.65083984 51.16189453 325 50 C325.66 50 326.32 50 327 50 C327.959938 52.06175364 328.91788424 54.12443469 329.875 56.1875 C330.40867187 57.33605469 330.94234375 58.48460937 331.4921875 59.66796875 C332.73886913 62.42294137 333.90661592 65.18161677 335 68 C339.64586892 67.51515724 339.64586892 67.51515724 344 66 C344.33 66.99 344.66 67.98 345 69 C349.3177458 68.49202991 353.03302114 67.80317221 357 66 C356.34 66.99 355.68 67.98 355 69 C361.91663627 67.90109517 368.42736799 66.43430815 375 64 C375.33 64.66 375.66 65.32 376 66 C362.27938345 71.3734734 350.60336782 72.26987743 336 72 C336.32742188 72.87785156 336.65484375 73.75570312 336.9921875 74.66015625 C338.64849554 80.4572344 338.20972739 86.46421901 338.125 92.4375 C338.11597656 93.64599609 338.10695313 94.85449219 338.09765625 96.09960938 C338.07420168 99.06661278 338.04137794 102.03320143 338 105 C337.34 105.33 336.68 105.66 336 106 C335.67 101.71 335.34 97.42 335 93 C334.030625 94.8975 333.06125 96.795 332.0625 98.75 C328.39172929 105.70570087 323.88259194 111.83658728 319 118 C317.66500142 119.68618291 316.33150758 121.37355903 315 123.0625 C314.443125 123.75472656 313.88625 124.44695312 313.3125 125.16015625 C311.81303255 127.07171955 311.81303255 127.07171955 311 130 C315.00936388 126.22180665 318.17270443 122.20415407 321.3125 117.6875 C321.76689453 117.04232422 322.22128906 116.39714844 322.68945312 115.73242188 C323.79735952 114.15802858 324.89930525 112.57944354 326 111 C326.66 111.33 327.32 111.66 328 112 C326.60784291 114.04425682 325.21141633 116.08537555 323.8125 118.125 C323.42513672 118.69476563 323.03777344 119.26453125 322.63867188 119.8515625 C320.63145168 122.77115551 318.57184871 125.55382467 316.26171875 128.2421875 C313.85376139 130.8435904 313.85376139 130.8435904 313 134 C315.64752004 131.42215154 317.94432065 129.08351902 320 126 C320.66 126 321.32 126 322 126 C320.85182066 128.58340351 319.72475246 130.3067044 317.8125 132.4375 C315.71805076 134.80428007 315.71805076 134.80428007 316.23828125 137.375 C317.01152545 140.03971846 317.99615805 142.15997236 319.375 144.5625 C319.79523438 145.30628906 320.21546875 146.05007813 320.6484375 146.81640625 C321.98782796 148.98033477 323.44115252 150.98990719 325 153 C325.66 151.35 326.32 149.7 327 148 C327.66 148 328.32 148 329 148 C328.67 150.97 328.34 153.94 328 157 C329.03253906 157.20753906 330.06507813 157.41507813 331.12890625 157.62890625 C361.71923356 163.97951936 393.92836655 174.25534028 418 195 C418.71671875 195.6084375 419.4334375 196.216875 420.171875 196.84375 C422.13960764 198.53858541 424.08749962 200.24312064 426 202 C426.73089844 202.50660156 427.46179688 203.01320313 428.21484375 203.53515625 C431.14008062 207.57415945 430.41756404 211.9099771 430.25 216.75 C430.23195313 217.73355469 430.21390625 218.71710938 430.1953125 219.73046875 C430.14824126 222.15463783 430.08250742 224.57682059 430 227 C426.10438078 224.08689857 422.21310667 221.16912208 418.3515625 218.2109375 C398.09360336 202.74820994 377.05846917 188.20718928 352.515625 180.60546875 C329.10011929 173.26304506 307.24613418 162.18014416 286 150 C285.04270996 149.45279297 284.08541992 148.90558594 283.09912109 148.34179688 C271.63462266 141.75826094 260.68912856 135.03198878 250.28125 126.8671875 C217.80792045 101.81383916 180.42468028 90.62663736 140.03530884 87.38473511 C111.4492066 85.05965166 83.81674864 78.71809396 58 66 C57.33000977 65.67386719 56.66001953 65.34773438 55.96972656 65.01171875 C42.71243314 58.49024761 31.52271489 50.00958391 20.88427734 39.75097656 C18.65317845 37.6777139 16.33673304 35.71866272 14.01953125 33.7421875 C-0.18808494 21.1826127 -0.18808494 21.1826127 -1.21484375 13.55078125 C-1.37983357 8.92086076 -0.86987297 4.54266996 0 0 Z " fill="#214E3A" transform="translate(0,241)"/>
<path d="M0 0 C3.44584971 2.67116233 4.8613124 4.08507585 5.5234375 8.453125 C5.47445313 9.70609375 5.42546875 10.9590625 5.375 12.25 C5.35373047 13.24580078 5.35373047 13.24580078 5.33203125 14.26171875 C5.22423995 17.94818104 4.75704105 21.40095237 4 25 C3.58437993 28.91839326 3.58437993 28.91839326 5.64453125 31.0625 C8.2685068 33.4075304 10.84785916 35.42392958 14 37 C14.33 33.04 14.66 29.08 15 25 C15.33 25 15.66 25 16 25 C16 29.95 16 34.9 16 40 C16.99 40.495 16.99 40.495 18 41 C18.48181362 38.02124032 18.96050857 35.04203251 19.4375 32.0625 C19.57220703 31.23169922 19.70691406 30.40089844 19.84570312 29.54492188 C20.72384059 24.04049925 21.42374897 18.54431818 22 13 C22.66 13 23.32 13 24 13 C23.47932209 23.42726018 22.528829 33.66927199 21 44 C23.64 45.98 26.28 47.96 29 50 C29.33 36.8 29.66 23.6 30 10 C30.66 10 31.32 10 32 10 C32.02514961 13.89199822 32.04306705 17.7839635 32.05493164 21.67602539 C32.06229736 23.63364327 32.07501826 25.59123871 32.08789062 27.54882812 C32.10875748 35.74950314 31.76696206 43.83492363 31 52 C31.66 52 32.32 52 33 52 C35.36999238 41.62569375 36.5951741 31.62318999 37 21 C37.66 21 38.32 21 39 21 C39.63055515 33.54104138 37.79963181 44.80160427 35 57 C35.99 57.33 36.98 57.66 38 58 C38.11069824 57.27820557 38.22139648 56.55641113 38.33544922 55.81274414 C38.83940512 52.56115353 39.35700905 49.31188296 39.875 46.0625 C40.04902344 44.92619141 40.22304688 43.78988281 40.40234375 42.61914062 C40.57636719 41.53955078 40.75039063 40.45996094 40.9296875 39.34765625 C41.08679199 38.34742432 41.24389648 37.34719238 41.40576172 36.31665039 C41.60186035 35.55215576 41.79795898 34.78766113 42 34 C42.66 33.67 43.32 33.34 44 33 C44.36285831 39.77335511 43.41163363 45.89550072 42.06713867 52.50195312 C41.4789065 55.39592956 41 58.03701778 41 61 C43.31 61.66 45.62 62.32 48 63 C48.06058594 62.25234375 48.12117188 61.5046875 48.18359375 60.734375 C48.30927734 59.25710937 48.30927734 59.25710937 48.4375 57.75 C48.55931641 56.28820312 48.55931641 56.28820312 48.68359375 54.796875 C48.95074584 52.43538247 49.35371968 50.28098935 50 48 C50.66 48 51.32 48 52 48 C51.85923685 49.9587043 51.7122324 51.91696093 51.5625 53.875 C51.44068359 55.51082031 51.44068359 55.51082031 51.31640625 57.1796875 C51 60 51 60 50 62 C52.97 62 55.94 62 59 62 C59.18175781 60.34677734 59.18175781 60.34677734 59.3671875 58.66015625 C60.31846933 50.03730853 61.29449382 41.4181081 62.31542969 32.80322266 C62.89954131 27.8711155 63.46138916 22.93726606 64 18 C64.33 18 64.66 18 65 18 C65.7586363 32.94092038 63.44568799 47.28847125 61 62 C62.2375 62.0825 63.475 62.165 64.75 62.25 C70 63 70 63 82 67 C82 84.16 82 101.32 82 119 C66.23199796 124.80926391 53.27517915 128.95356475 37 131 C42.02359154 134.65352112 45.5835146 136.97878591 52 136 C54.92678078 135.05286122 57.78565836 134.01066261 60.64453125 132.875 C63 132 63 132 65 132 C65 132.66 65 133.32 65 134 C63.23141309 134.67260351 61.46003984 135.33788395 59.6875 136 C58.70136719 136.37125 57.71523438 136.7425 56.69921875 137.125 C54 138 54 138 51 138 C51 138.66 51 139.32 51 140 C56.39460953 142.27141454 61.26157749 142.20413361 67 142 C65.4375 144.5625 65.4375 144.5625 63 147 C57.22969567 146.80670196 52.899181 144.81940004 47.9375 142.125 C47.19290527 141.7213623 46.44831055 141.31772461 45.68115234 140.90185547 C26.50046076 130.19130486 8.00162664 113.01605663 -3 94 C-3.59425781 93.00097656 -4.18851562 92.00195312 -4.80078125 90.97265625 C-18.10148579 66.64209917 -26.37867083 32.78458754 -26 5 C-17.90472567 2.06692959 -8.68789737 -1.1924565 0 0 Z " fill="#25523E" transform="translate(348,67)"/>
<path d="M0 0 C2.3270241 2.32300506 4.65279298 4.64655573 6.95703125 6.9921875 C11.45965831 11.56116907 16.11941656 15.84031768 21 20 C21.93457031 20.81210937 22.86914062 21.62421875 23.83203125 22.4609375 C53.98940407 48.51846585 83.46978279 63.25067194 122.66918945 70.46508789 C136.45556482 73.00481442 150.16020686 75.81166573 163.5 80.1875 C164.40669434 80.48156738 165.31338867 80.77563477 166.24755859 81.07861328 C184.58496297 87.09123507 202.63094522 93.55139969 220 102 C220.84481934 102.40943848 221.68963867 102.81887695 222.56005859 103.24072266 C233.61883469 108.66347768 243.89083514 114.77532756 254.05224609 121.72607422 C282.85200851 141.25596328 315.18684357 153.46088245 348.78466797 161.81762695 C364.9754714 165.9264062 380.35110512 172.00085565 395 180 C395.62374512 180.33531738 396.24749023 180.67063477 396.89013672 181.01611328 C404.42259166 185.08344406 411.46989554 189.43871644 418 195 C418.72058594 195.61101562 419.44117188 196.22203125 420.18359375 196.8515625 C422.14665808 198.54448037 424.09101898 200.24635363 426 202 C426.73089844 202.50660156 427.46179688 203.01320313 428.21484375 203.53515625 C431.14008062 207.57415945 430.41756404 211.9099771 430.25 216.75 C430.23195313 217.73355469 430.21390625 218.71710938 430.1953125 219.73046875 C430.14824126 222.15463783 430.08250742 224.57682059 430 227 C426.10438078 224.08689857 422.21310667 221.16912208 418.3515625 218.2109375 C398.09360336 202.74820994 377.05846917 188.20718928 352.515625 180.60546875 C329.10011929 173.26304506 307.24613418 162.18014416 286 150 C285.04270996 149.45279297 284.08541992 148.90558594 283.09912109 148.34179688 C271.63462266 141.75826094 260.68912856 135.03198878 250.28125 126.8671875 C217.80792045 101.81383916 180.42468028 90.62663736 140.03530884 87.38473511 C111.4492066 85.05965166 83.81674864 78.71809396 58 66 C57.33000977 65.67386719 56.66001953 65.34773438 55.96972656 65.01171875 C42.71243314 58.49024761 31.52271489 50.00958391 20.88427734 39.75097656 C18.65317845 37.6777139 16.33673304 35.71866272 14.01953125 33.7421875 C-0.18808494 21.1826127 -0.18808494 21.1826127 -1.21484375 13.55078125 C-1.37983357 8.92086076 -0.86987297 4.54266996 0 0 Z " fill="#DAB36B" transform="translate(0,241)"/>
<path d="M0 0 C0.79019531 0.11085937 1.58039063 0.22171875 2.39453125 0.3359375 C2.98621094 0.43132812 3.57789063 0.52671875 4.1875 0.625 C2.375 2.625 2.375 2.625 0.1875 4.625 C-0.8025 4.625 -1.7925 4.625 -2.8125 4.625 C-2.8125 5.285 -2.8125 5.945 -2.8125 6.625 C-2.28140625 6.32464844 -1.7503125 6.02429688 -1.203125 5.71484375 C-0.49671875 5.33457031 0.2096875 4.95429688 0.9375 4.5625 C1.63359375 4.17964844 2.3296875 3.79679688 3.046875 3.40234375 C5.54890628 2.4937594 6.7207355 2.74163163 9.1875 3.625 C9.1875 4.945 9.1875 6.265 9.1875 7.625 C4.14609836 10.44032819 -0.03871075 12.1438509 -5.8125 12.625 C-5.8125 13.285 -5.8125 13.945 -5.8125 14.625 C1.42986488 12.70369841 1.42986488 12.70369841 8.0625 9.3125 C11.1875 7.625 11.1875 7.625 13.5625 8.1875 C15.1875 9.625 15.1875 9.625 16.1875 12.625 C5.16145216 18.54361424 -5.8474359 22.96900819 -17.8125 26.625 C-6.6031136 25.63738886 4.50086242 20.7377401 14.0390625 14.87109375 C16.1875 13.625 16.1875 13.625 19.1875 13.625 C19.1875 18.245 19.1875 22.865 19.1875 27.625 C6.10017219 32.66921821 -6.71384896 37.46937287 -20.8125 38.625 C-21.57820313 38.74746094 -22.34390625 38.86992187 -23.1328125 38.99609375 C-29.17112621 39.61128245 -32.13241452 38.10288244 -36.875 34.3125 C-41.63068182 30.17045455 -41.63068182 30.17045455 -42.8125 26.625 C-41.4925 26.295 -40.1725 25.965 -38.8125 25.625 C-38.8125 24.965 -38.8125 24.305 -38.8125 23.625 C-42.7725 24.12 -42.7725 24.12 -46.8125 24.625 C-47.1425 23.965 -47.4725 23.305 -47.8125 22.625 C-43.5225 21.965 -39.2325 21.305 -34.8125 20.625 C-38.57361901 20.54180455 -38.57361901 20.54180455 -41.328125 20.94140625 C-45.82813751 21.34640738 -48.65539171 21.53764879 -52.30859375 18.65625 C-57.8125 12.45577094 -57.8125 12.45577094 -57.8125 10.625 C-56.68714844 10.58761719 -55.56179688 10.55023438 -54.40234375 10.51171875 C-38.02053882 9.85809856 -22.26397696 7.19393695 -7.18359375 0.44921875 C-4.48928183 -0.48735426 -2.80182852 -0.41818336 0 0 Z " fill="#0F3C28" transform="translate(410.8125,156.375)"/>
<path d="M0 0 C0.66 0 1.32 0 2 0 C2.959938 2.06175364 3.91788424 4.12443469 4.875 6.1875 C5.40867187 7.33605469 5.94234375 8.48460937 6.4921875 9.66796875 C7.73886913 12.42294137 8.90661592 15.18161677 10 18 C14.64586892 17.51515724 14.64586892 17.51515724 19 16 C19.495 17.485 19.495 17.485 20 19 C24.3177458 18.49202991 28.03302114 17.80317221 32 16 C31.01 17.485 31.01 17.485 30 19 C36.91663627 17.90109517 43.42736799 16.43430815 50 14 C50.495 14.99 50.495 14.99 51 16 C37.27938345 21.3734734 25.60336782 22.26987743 11 22 C11.49113281 23.31677734 11.49113281 23.31677734 11.9921875 24.66015625 C13.64849554 30.4572344 13.20972739 36.46421901 13.125 42.4375 C13.11597656 43.64599609 13.10695313 44.85449219 13.09765625 46.09960938 C13.07420168 49.06661278 13.04137794 52.03320143 13 55 C12.01 55.495 12.01 55.495 11 56 C10.67 51.71 10.34 47.42 10 43 C9.030625 44.8975 8.06125 46.795 7.0625 48.75 C3.39172929 55.70570087 -1.11740806 61.83658728 -6 68 C-7.33499858 69.68618291 -8.66849242 71.37355903 -10 73.0625 C-10.8353125 74.10083984 -10.8353125 74.10083984 -11.6875 75.16015625 C-13.18696745 77.07171955 -13.18696745 77.07171955 -14 80 C-9.99063612 76.22180665 -6.82729557 72.20415407 -3.6875 67.6875 C-3.0059082 66.71973633 -3.0059082 66.71973633 -2.31054688 65.73242188 C-1.20264048 64.15802858 -0.10069475 62.57944354 1 61 C1.66 61.33 2.32 61.66 3 62 C1.60784291 64.04425682 0.21141633 66.08537555 -1.1875 68.125 C-1.76854492 68.97964844 -1.76854492 68.97964844 -2.36132812 69.8515625 C-4.36854832 72.77115551 -6.42815129 75.55382467 -8.73828125 78.2421875 C-11.14623861 80.8435904 -11.14623861 80.8435904 -12 84 C-9.35247996 81.42215154 -7.05567935 79.08351902 -5 76 C-4.34 76 -3.68 76 -3 76 C-4.14817934 78.58340351 -5.27524754 80.3067044 -7.1875 82.4375 C-9.28194924 84.80428007 -9.28194924 84.80428007 -8.76171875 87.375 C-7.98847455 90.03971846 -7.00384195 92.15997236 -5.625 94.5625 C-5.20476562 95.30628906 -4.78453125 96.05007813 -4.3515625 96.81640625 C-3.01217204 98.98033477 -1.55884748 100.98990719 0 103 C0.66 101.35 1.32 99.7 2 98 C2.66 98 3.32 98 4 98 C3.67 100.97 3.34 103.94 3 107 C-44.07809228 92.53723666 -44.07809228 92.53723666 -57 79 C-58.51347742 77.65832272 -60.03498519 76.32567354 -61.5625 75 C-64.72248751 72.2086777 -67.62207117 69.51519914 -70 66 C-70 65.34 -70 64.68 -70 64 C-66.95139986 65.01620005 -66.13333078 65.77391571 -64 68 C-63.34 68.33 -62.68 68.66 -62 69 C-62 69.99 -62 70.98 -62 72 C-61.38125 72.28875 -60.7625 72.5775 -60.125 72.875 C-58 74 -58 74 -56 76 C-53.56747339 76.46162427 -53.56747339 76.46162427 -50.875 76.625 C-49.96492188 76.69976562 -49.05484375 76.77453125 -48.1171875 76.8515625 C-47.06917969 76.92503906 -47.06917969 76.92503906 -46 77 C-46 77.33 -46 77.66 -46 78 C-48.97 78.495 -48.97 78.495 -52 79 C-46.793948 83.31139494 -42.81748378 83.56315488 -36.1875 83.375 C-35.33607422 83.37371094 -34.48464844 83.37242187 -33.60742188 83.37109375 C-27.81996432 83.29175313 -22.60901533 82.41785018 -17 81 C-17.30679688 80.40558105 -17.61359375 79.81116211 -17.9296875 79.19873047 C-21 73.25 -21 73.25 -21 71 C-22.299375 71.495 -22.299375 71.495 -23.625 72 C-26.95718275 72.98731341 -29.55159538 73.16420974 -33 73 C-33 72.67 -33 72.34 -33 72 C-27.555 71.01 -27.555 71.01 -22 70 C-22.33 69.34 -22.66 68.68 -23 68 C-26.63 68.33 -30.26 68.66 -34 69 C-30.39338934 67.19669467 -27.91606575 66.53400897 -24 66 C-24.34786708 64.02463255 -24.34786708 64.02463255 -25 62 C-25.99 61.505 -25.99 61.505 -27 61 C-27.71706982 59.01751285 -28.38290413 57.01584651 -29 55 C-29.33 54.34 -29.66 53.68 -30 53 C-30.039992 51.00039988 -30.04346799 48.99952758 -30 47 C-29.01 47.495 -29.01 47.495 -28 48 C-28 48.66 -28 49.32 -28 50 C-16.58400785 41.72573866 -10.3322881 28.2573551 -4 16 C-3.505 16.99 -3.505 16.99 -3 18 C-4.03765222 20.54255134 -5.13493264 22.93230659 -6.375 25.375 C-6.9160437 26.44778198 -6.9160437 26.44778198 -7.46801758 27.54223633 C-11.52466927 35.34643662 -16.39703398 42.51986237 -22.75 48.65625 C-25.26682428 50.8020518 -25.26682428 50.8020518 -25.3125 53.8125 C-25.1578125 54.8953125 -25.1578125 54.8953125 -25 56 C-19.84310395 52.11498414 -16.43388004 47.81502925 -12.8125 42.5 C-12.29236328 41.75363281 -11.77222656 41.00726563 -11.23632812 40.23828125 C-8.69073192 36.56456003 -6.23629901 32.87317767 -4 29 C-3.505 30.485 -3.505 30.485 -3 32 C-7.72845674 40.9591812 -14.8551202 49.8551202 -22 57 C-22.16687448 59.58354218 -22.16687448 59.58354218 -22 62 C-17.90542721 60.6351424 -16.28332715 57.78245715 -13.8125 54.4375 C-13.34908203 53.82197266 -12.88566406 53.20644531 -12.40820312 52.57226562 C-11.26576775 51.05294435 -10.13203843 49.52708373 -9 48 C-8.01 48.495 -8.01 48.495 -7 49 C-7.8716226 50.18998121 -8.74754599 51.37681214 -9.625 52.5625 C-10.43517578 53.66078125 -10.43517578 53.66078125 -11.26171875 54.78125 C-12.88236202 56.84984636 -14.60973582 58.6790896 -16.4375 60.5625 C-18.99714265 63.44791535 -19.00770182 63.7573928 -18.875 67.9375 C-18.58625 68.948125 -18.2975 69.95875 -18 71 C-13.78185183 67.0299782 -10.38772897 62.69159716 -7 58 C-6.67 58.66 -6.34 59.32 -6 60 C-7.45072247 62.00593724 -8.90991029 64.00460174 -10.375 66 C-10.99375 66.85851562 -10.99375 66.85851562 -11.625 67.734375 C-12.70171719 69.19315312 -13.84666578 70.60100976 -15 72 C-15.66 72 -16.32 72 -17 72 C-16.67 73.32 -16.34 74.64 -16 76 C-5.28536937 65.6083281 5.44616666 51.42047225 10 37 C10.03523377 34.77892589 10.03523377 34.77892589 9.625 32.6875 C9.41875 31.470625 9.2125 30.25375 9 29 C8.59007812 29.71027344 8.18015625 30.42054688 7.7578125 31.15234375 C7.21898437 32.07144531 6.68015625 32.99054688 6.125 33.9375 C5.59132813 34.85402344 5.05765625 35.77054687 4.5078125 36.71484375 C3 39 3 39 1 40 C2.50186444 35.76747293 4.65026713 32.1001395 6.9765625 28.28125 C8.14403815 25.67893787 8.18873118 23.82103444 8 21 C7.34 21 6.68 21 6 21 C6 21.66 6 22.32 6 23 C5.34 23 4.68 23 4 23 C4 21.35 4 19.7 4 18 C4.66 18 5.32 18 6 18 C5.54738642 16.56068883 5.08767021 15.12361001 4.625 13.6875 C4.36976563 12.88699219 4.11453125 12.08648437 3.8515625 11.26171875 C3.01168189 8.77275472 3.01168189 8.77275472 1 6 C0.01 8.64 -0.98 11.28 -2 14 C-3.21065165 10.36804504 -2.62784815 8.93468371 -1.5625 5.3125 C-1.13130859 3.82169922 -1.13130859 3.82169922 -0.69140625 2.30078125 C-0.46324219 1.54152344 -0.23507812 0.78226562 0 0 Z " fill="#285541" transform="translate(325,291)"/>
<path d="M0 0 C16.83 0 33.66 0 51 0 C55.125 12.375 55.125 12.375 56 19 C56.90113147 22.03642127 57.92586831 25.02080456 59 28 C54.25363547 29.2058853 49.61314027 29.18369473 44.75 29.1875 C43.94175781 29.19974609 43.13351562 29.21199219 42.30078125 29.22460938 C29.19458021 29.25606426 18.5806154 25.12344395 8.9765625 16.11328125 C4.32741827 11.1425559 2.15518597 6.46555792 0 0 Z " fill="#1F4C38" transform="translate(315,0)"/>
<path d="M0 0 C0.33 0 0.66 0 1 0 C1.495 8.415 1.495 8.415 2 17 C4.413125 15.1746875 4.413125 15.1746875 6.875 13.3125 C22.62489685 1.94203876 40.01385655 -1.41544563 59.15234375 1.57421875 C64.68421671 2.67130583 69.32118308 3.73824412 74 7 C76.68528919 12.37057838 74.96945584 18.88221816 73.4375 24.375 C68.61433283 38.82763729 59.68301579 47.99014695 46.37548828 54.98535156 C30.7270873 62.79989016 12.81181875 70.82244384 -4.8125 65.5 C-6.21480388 65.01844573 -7.61365871 64.52574568 -9 64 C-9 63.34 -9 62.68 -9 62 C-8.22914063 62.16757812 -7.45828125 62.33515625 -6.6640625 62.5078125 C-5.66117187 62.71148437 -4.65828125 62.91515625 -3.625 63.125 C-2.62726563 63.33382812 -1.62953125 63.54265625 -0.6015625 63.7578125 C0.25695312 63.83773437 1.11546875 63.91765625 2 64 C2.66 63.34 3.32 62.68 4 62 C4 62.99 4 63.98 4 65 C10.02900687 64.48758893 16.02004643 63.930215 22 63 C22 61.02 22 59.04 22 57 C22.33 57 22.66 57 23 57 C23 58.65 23 60.3 23 62 C25.17038477 61.20700294 25.17038477 61.20700294 25.6328125 59.15234375 C25.79523438 58.42144531 25.95765625 57.69054687 26.125 56.9375 C26.29257812 56.20402344 26.46015625 55.47054687 26.6328125 54.71484375 C26.81457031 53.86599609 26.81457031 53.86599609 27 53 C27.33 53 27.66 53 28 53 C28 55.31 28 57.62 28 60 C28.50450684 59.75765625 29.00901367 59.5153125 29.52880859 59.265625 C31.80897784 58.17307673 34.09193169 57.08647624 36.375 56 C37.1690625 55.6184375 37.963125 55.236875 38.78125 54.84375 C39.92207031 54.30234375 39.92207031 54.30234375 41.0859375 53.75 C41.7876709 53.41484375 42.4894043 53.0796875 43.21240234 52.734375 C45 52 45 52 47 52 C47.33 50.35 47.66 48.7 48 47 C48.33 47.99 48.66 48.98 49 50 C51.62901288 48.47793991 53.84365964 47.15634036 56 45 C56.51175781 44.59523438 57.02351563 44.19046875 57.55078125 43.7734375 C67.23533464 36.08592062 71.19999959 25.30764206 72.75 13.1875 C72.8325 12.135625 72.915 11.08375 73 10 C72.21625 10.515625 71.4325 11.03125 70.625 11.5625 C69.75875 12.036875 68.8925 12.51125 68 13 C67.01 12.505 67.01 12.505 66 12 C67.32 10.35 68.64 8.7 70 7 C61.34495406 4.2686389 61.34495406 4.2686389 53 5 C52.01 4.505 52.01 4.505 51 4 C41.77788475 3.49290159 33.05046577 4.11237958 24 6 C24 6.66 24 7.32 24 8 C22.741875 8.33 21.48375 8.66 20.1875 9 C12.23669941 11.64187994 4.69423425 17.02660525 0 24 C-0.89148754 26.87034726 -0.89148754 26.87034726 -1.25 29.8125 C-1.39953125 30.78832031 -1.5490625 31.76414062 -1.703125 32.76953125 C-1.80109375 33.50558594 -1.8990625 34.24164063 -2 35 C-0.515 35.495 -0.515 35.495 1 36 C-0.32 36 -1.64 36 -3 36 C-3.03738281 36.7734375 -3.07476562 37.546875 -3.11328125 38.34375 C-3.52524389 44.87053064 -4.46910576 49.98912619 -7 56 C-7.37966646 57.65672637 -7.73760976 59.32070245 -8 61 C-8.99 61 -9.98 61 -11 61 C-10.73958333 59.01432292 -10.47916667 57.02864583 -10.21875 55.04296875 C-9.946767 52.84528294 -9.946767 52.84528294 -10 50 C-10 48.68 -10 47.36 -10 46 C-10.51949219 46.58910156 -11.03898437 47.17820312 -11.57421875 47.78515625 C-12.27160156 48.53667969 -12.96898437 49.28820312 -13.6875 50.0625 C-14.37199219 50.81660156 -15.05648438 51.57070313 -15.76171875 52.34765625 C-18 54 -18 54 -20.76953125 53.74609375 C-21.50558594 53.49988281 -22.24164063 53.25367188 -23 53 C-22.38801624 49.56049636 -21.07941153 47.48435515 -18.9375 44.75 C-18.38964844 44.04359375 -17.84179688 43.3371875 -17.27734375 42.609375 C-16.85582031 42.07828125 -16.43429687 41.5471875 -16 41 C-16.66 41 -17.32 41 -18 41 C-18.268125 41.763125 -18.53625 42.52625 -18.8125 43.3125 C-19.95134505 45.88988618 -20.81416671 47.26954864 -23 49 C-23.66 49 -24.32 49 -25 49 C-24.47343968 44.69273656 -21.75428474 41.82117443 -19.125 38.5625 C-16.14168139 34.82690364 -13.35861701 31.1783447 -11 27 C-13.92419007 29.92419007 -16.20943949 33.61167746 -18.67578125 36.921875 C-19.44277344 37.93765625 -20.20976562 38.9534375 -21 40 C-21.71542969 40.95390625 -22.43085938 41.9078125 -23.16796875 42.890625 C-23.77253906 43.58671875 -24.37710937 44.2828125 -25 45 C-25.66 45 -26.32 45 -27 45 C-26.39844441 41.80255821 -25.38140382 39.8994907 -23.33984375 37.3828125 C-22.7969873 36.69985107 -22.25413086 36.01688965 -21.69482422 35.31323242 C-21.11490723 34.59111572 -20.53499023 33.86899902 -19.9375 33.125 C-14.83558004 26.63743383 -10.4873 20.12154345 -6.5859375 12.85546875 C-5 10 -5 10 -2 6 C-1.505 12.93 -1.505 12.93 -1 20 C-0.67 13.4 -0.34 6.8 0 0 Z " fill="#184531" transform="translate(338,326)"/>
<path d="M0 0 C1.75 0.875 1.75 0.875 3.75 4.875 C0.78 5.535 -2.19 6.195 -5.25 6.875 C-5.25 7.535 -5.25 8.195 -5.25 8.875 C-4.57453125 8.64683594 -3.8990625 8.41867188 -3.203125 8.18359375 C-2.31109375 7.89613281 -1.4190625 7.60867187 -0.5 7.3125 C0.82257813 6.87744141 0.82257813 6.87744141 2.171875 6.43359375 C4.88154988 5.84649753 6.21988193 5.78044892 8.75 6.875 C9.41 7.865 10.07 8.855 10.75 9.875 C4.81682122 11.97896411 -1.07777121 13.63471762 -7.25 14.875 C-7.25 15.535 -7.25 16.195 -7.25 16.875 C-6.69538086 16.68276855 -6.14076172 16.49053711 -5.56933594 16.29248047 C-3.05124986 15.42942253 -0.52601258 14.58956006 2 13.75 C2.87269531 13.44707031 3.74539063 13.14414063 4.64453125 12.83203125 C5.48886719 12.55488281 6.33320313 12.27773437 7.203125 11.9921875 C8.36569824 11.59942627 8.36569824 11.59942627 9.55175781 11.19873047 C12.30936648 10.79262328 13.46073167 11.34030542 15.75 12.875 C17 15 17 15 17.75 16.875 C7.36366282 20.03403185 -2.32681515 22.66271196 -13.25 22.875 C-13.25 23.535 -13.25 24.195 -13.25 24.875 C-9.95660175 24.28004302 -6.6656803 23.67229588 -3.375 23.0625 C-2.4571875 22.89685547 -1.539375 22.73121094 -0.59375 22.56054688 C4.92703276 21.53025995 10.16287985 20.2187082 15.46533203 18.35668945 C18.25630317 17.76825324 20.04646584 17.98540449 22.75 18.875 C23.41 19.865 24.07 20.855 24.75 21.875 C15.31464576 26.31088908 5.907821 28.73651137 -4.25 30.875 C-5.14203125 31.07480469 -6.0340625 31.27460938 -6.953125 31.48046875 C-9.36988922 31.89559322 -11.61277568 31.97406305 -14.0625 31.9375 C-14.85269531 31.92847656 -15.64289063 31.91945312 -16.45703125 31.91015625 C-17.04871094 31.89855469 -17.64039063 31.88695312 -18.25 31.875 C-18.92736481 29.83685767 -19.59143534 27.79429445 -20.25 25.75 C-20.806875 24.04457031 -20.806875 24.04457031 -21.375 22.3046875 C-22.21911949 18.99604059 -22.41509276 16.26971984 -22.25 12.875 C-17.3 11.39 -17.3 11.39 -12.25 9.875 C-13.9 10.205 -15.55 10.535 -17.25 10.875 C-19.58301986 10.91324623 -21.91711508 10.92074284 -24.25 10.875 C-24.25 8.565 -24.25 6.255 -24.25 3.875 C-22.62191406 3.69324219 -22.62191406 3.69324219 -20.9609375 3.5078125 C-19.51558596 3.33887531 -18.07027558 3.16958575 -16.625 3 C-15.91214844 2.92136719 -15.19929688 2.84273438 -14.46484375 2.76171875 C-9.66087191 2.18876798 -4.67430048 -0.25968336 0 0 Z " fill="#0F3C28" transform="translate(356.25,105.125)"/>
<path d="M0 0 C2.475 0.99 2.475 0.99 5 2 C5 5.3 5 8.6 5 12 C5.66 12 6.32 12 7 12 C7 9.69 7 7.38 7 5 C11.35843207 3.76059653 14.45636989 4.33746714 18.8125 5.4375 C19.97394531 5.72496094 21.13539063 6.01242188 22.33203125 6.30859375 C23.21246094 6.53675781 24.09289062 6.76492187 25 7 C25.02945039 11.41665225 25.04694816 15.83327867 25.0625 20.25 C25.07087891 21.48492187 25.07925781 22.71984375 25.08789062 23.9921875 C25.10821886 31.71691504 24.79005315 39.31501847 24 47 C23.39816895 46.69787598 22.79633789 46.39575195 22.17626953 46.08447266 C20.51784504 45.25805112 18.85065062 44.44920376 17.1796875 43.6484375 C14.49592774 40.38752511 14.78010724 39.45517752 15.1328125 35.3515625 C15.43618918 33.1055106 15.76811586 30.86317342 16.125 28.625 C16.36089844 26.93890625 16.36089844 26.93890625 16.6015625 25.21875 C17.32302109 20.13246697 18.14892008 15.06604149 19 10 C18.34 10 17.68 10 17 10 C17.061875 11.134375 17.12375 12.26875 17.1875 13.4375 C17.20333172 18.37699759 16.42526129 23.09064672 15.5625 27.9375 C15.42803467 28.69538818 15.29356934 29.45327637 15.1550293 30.23413086 C14.14021308 35.71957384 14.14021308 35.71957384 13 38 C12.01 37.67 11.02 37.34 10 37 C10 34.69 10 32.38 10 30 C9.67 31.32 9.34 32.64 9 34 C4.3076047 32.61988374 0.42716402 30.3056209 -2 26 C-2.45879278 21.46875989 -1.92675856 17.13184203 -1.375 12.625 C-1.25253906 11.41199219 -1.13007813 10.19898437 -1.00390625 8.94921875 C-0.69811098 5.9618342 -0.36269047 2.98092183 0 0 Z " fill="#0F3C28" transform="translate(353,70)"/>
<path d="M0 0 C11.28650253 3.22712872 20.66193349 12.0383699 29 20 C29.33 18.35 29.66 16.7 30 15 C32 18 32 18 32.875 21.5625 C33.24625 22.696875 33.6175 23.83125 34 25 C35.32 25.66 36.64 26.32 38 27 C38 30.3 38 33.6 38 37 C37.34 37 36.68 37 36 37 C35.34 34.69 34.68 32.38 34 30 C33.16483186 32.9973401 32.77349127 35.85692565 32.53515625 38.95703125 C32.41817383 40.37918945 32.41817383 40.37918945 32.29882812 41.83007812 C32.14222304 43.80640836 31.98854086 45.78297255 31.83789062 47.75976562 C31.39340344 53.09722551 30.69531785 57.91404646 29 63 C28.34 62.67 27.68 62.34 27 62 C27.13277344 61.41476563 27.26554687 60.82953125 27.40234375 60.2265625 C28.82633975 53.304071 29.36443253 46.50260606 29.65795898 39.45947266 C29.85424439 34.90744919 30.27971064 30.50032033 31 26 C28.03 25.01 25.06 24.02 22 23 C21.67 24.98 21.34 26.96 21 29 C20.67 29 20.34 29 20 29 C20 26.69 20 24.38 20 22 C18.68 22.33 17.36 22.66 16 23 C14.51756421 27.86385956 14.62301402 32.93730618 14.37890625 37.98046875 C14.19134766 39.47513672 14.19134766 39.47513672 14 41 C13.01 41.495 13.01 41.495 12 42 C11.67 37.38 11.34 32.76 11 28 C10.01 28.33 9.02 28.66 8 29 C7.67 25.7 7.34 22.4 7 19 C0.4 18.01 -6.2 17.02 -13 16 C-13 17.65 -13 19.3 -13 21 C-13.66 20.67 -14.32 20.34 -15 20 C-15 18.68 -15 17.36 -15 16 C-19.29 15.67 -23.58 15.34 -28 15 C-28 15.99 -28 16.98 -28 18 C-28.66 18 -29.32 18 -30 18 C-30 17.01 -30 16.02 -30 15 C-30.66 15 -31.32 15 -32 15 C-32.33 15.66 -32.66 16.32 -33 17 C-33 16.34 -33 15.68 -33 15 C-33.94875 15.04125 -34.8975 15.0825 -35.875 15.125 C-39 15 -39 15 -41 13 C-36.40944374 10.70472187 -30.20111133 11.75515334 -25.125 11.75 C-24.4482724 11.74899292 -23.7715448 11.74798584 -23.0743103 11.74694824 C-8.35699807 11.76177479 6.36566957 12.4457946 20.1015625 18.23046875 C21.96750684 19.12522028 21.96750684 19.12522028 24 19 C24 18.34 24 17.68 24 17 C23.48179687 16.77183594 22.96359375 16.54367188 22.4296875 16.30859375 C18.46244743 14.17189693 14.92660099 11.39336008 11.30859375 8.72070312 C7.67907577 6.07926434 4.09282859 3.89621875 0 2 C0 1.34 0 0.68 0 0 Z " fill="#204D39" transform="translate(392,54)"/>
<path d="M0 0 C-5.88536514 2.94268257 -11.80540421 4.92890859 -18.125 6.6875 C-18.8886084 6.90172607 -19.6522168 7.11595215 -20.43896484 7.33666992 C-27.89457081 9.36070318 -35.24412936 10.16036152 -42.9375 10.5625 C-44.10635742 10.62727539 -44.10635742 10.62727539 -45.29882812 10.69335938 C-47.19907117 10.79828077 -49.09951669 10.8995245 -51 11 C-47.27421706 16.74098318 -47.27421706 16.74098318 -41.33203125 19.56640625 C-38.50253457 19.5625035 -35.80496975 19.3655085 -33 19 C-31.88044922 18.87431641 -31.88044922 18.87431641 -30.73828125 18.74609375 C-29.15229116 18.54342159 -27.57420448 18.27985857 -26 18 C-28.59980864 21.32957948 -31.11064555 21.61761712 -35.1875 22.1875 C-36.27417969 22.34605469 -37.36085938 22.50460938 -38.48046875 22.66796875 C-39.31191406 22.77753906 -40.14335937 22.88710937 -41 23 C-38.36 23 -35.72 23 -33 23 C-33 23.66 -33 24.32 -33 25 C-34.32 25.33 -35.64 25.66 -37 26 C-35.85920172 27.17536793 -34.71192342 28.34490566 -33.5390625 29.48828125 C-32.48664945 30.52199661 -31.46130828 31.58381056 -30.4609375 32.66796875 C-27.37544065 35.746154 -25.05500908 37.41207524 -20.625 37.5625 C-18.74498682 37.43470454 -16.8692784 37.23786448 -15 37 C-13.74960937 36.84144531 -12.49921875 36.68289062 -11.2109375 36.51953125 C-1.70889395 35.13405028 7.14013049 32.52122015 16.171875 29.3046875 C19.08978777 28.27274274 21.93551755 27.49466055 25 27 C25 27.66 25 28.32 25 29 C10.03902104 34.71208925 -4.04047066 38.99325445 -20 41 C-14.97640846 44.65352112 -11.4164854 46.97878591 -5 46 C-2.07321922 45.05286122 0.78565836 44.01066261 3.64453125 42.875 C6 42 6 42 8 42 C8 42.66 8 43.32 8 44 C6.23141309 44.67260351 4.46003984 45.33788395 2.6875 46 C1.70136719 46.37125 0.71523438 46.7425 -0.30078125 47.125 C-3 48 -3 48 -6 48 C-6 48.66 -6 49.32 -6 50 C-0.60539047 52.27141454 4.26157749 52.20413361 10 52 C8.4375 54.5625 8.4375 54.5625 6 57 C0.22969567 56.80670196 -4.100819 54.81940004 -9.0625 52.125 C-9.80709473 51.7213623 -10.55168945 51.31772461 -11.31884766 50.90185547 C-23.05831816 44.34650305 -32.45775022 35.78570814 -42 26.375 C-42.80163574 25.58754395 -43.60327148 24.80008789 -44.42919922 23.98876953 C-49.33870698 19.03794465 -53.37817843 13.96002697 -57 8 C-53.89593097 6.96531032 -51.43990126 6.97916328 -48.20068359 7.06567383 C-34.17629795 7.42342375 -21.3181887 5.15943507 -8.08740234 0.53833008 C-3.30074868 -1.10024956 -3.30074868 -1.10024956 0 0 Z " fill="#2B5844" transform="translate(405,157)"/>
<path d="M0 0 C0.495 0.99 0.495 0.99 1 2 C-5.28992461 1.17957505 -5.28992461 1.17957505 -8.0234375 0.48828125 C-21.86472679 -2.93561663 -36.33732891 -1.43098467 -50 2 C-49.67 3.65 -49.34 5.3 -49 7 C-48.34 7 -47.68 7 -47 7 C-45.31183067 8.64488294 -43.64646685 10.31337542 -42 12 C-39.08235 13.9451 -37.37462715 14.45276317 -34 15 C-34 15.66 -34 16.32 -34 17 C-31.03 17.33 -28.06 17.66 -25 18 C-25 18.99 -25 19.98 -25 21 C-24.34 21 -23.68 21 -23 21 C-23 20.01 -23 19.02 -23 18 C-21.58344207 17.9727585 -20.16672955 17.95349533 -18.75 17.9375 C-17.96109375 17.92589844 -17.1721875 17.91429688 -16.359375 17.90234375 C-14.09308998 17.99614694 -12.1711105 18.36758937 -10 19 C-9.505 20.98 -9.505 20.98 -9 23 C-8.67 21.68 -8.34 20.36 -8 19 C-1.1217616 18.77448399 5.29846948 19.36051843 12 21 C13 22 13 22 13.09765625 23.84765625 C13.06510417 25.8984375 13.03255208 27.94921875 13 30 C12.13834229 29.85377197 11.27668457 29.70754395 10.38891602 29.55688477 C7.15194651 29.00880228 3.9146072 28.46301061 0.67700195 27.91870117 C-0.71670439 27.68392256 -2.11026319 27.44826619 -3.50366211 27.21166992 C-10.98567341 25.94184884 -18.44260843 24.72812078 -26 24 C-26.33 26.31 -26.66 28.62 -27 31 C-27.66 31 -28.32 31 -29 31 C-29 27.7 -29 24.4 -29 21 C-32.74691447 19.60229416 -32.74691447 19.60229416 -35 21 C-35.56847656 20.40960938 -36.13695312 19.81921875 -36.72265625 19.2109375 C-38.86278345 17.13321538 -41.04111231 15.39425677 -43.4375 13.625 C-47.24040349 10.69437965 -50.27155929 7.96063974 -53 4 C-53 2.68 -53 1.36 -53 0 C-34.83811264 -4.80882124 -18.07417532 -6.07647121 0 0 Z " fill="#14412D" transform="translate(387,51)"/>
<path d="M0 0 C3.73584906 1.47169811 3.73584906 1.47169811 5 4 C3.89205078 4.41958984 3.89205078 4.41958984 2.76171875 4.84765625 C-6.29379532 8.42613767 -14.57265916 12.70918457 -21.75 19.375 C-25.0548235 22.38374972 -27.58099125 22.8196323 -32 23 C-32 23.66 -32 24.32 -32 25 C-30.68 25.33 -29.36 25.66 -28 26 C-28.99 27.32 -29.98 28.64 -31 30 C-33.32421875 29.80859375 -33.32421875 29.80859375 -36 29 C-37.58203125 26.78515625 -37.58203125 26.78515625 -38.8125 24.0625 C-39.23144531 23.16660156 -39.65039062 22.27070313 -40.08203125 21.34765625 C-41 19 -41 19 -41 17 C-34.07 16.34 -27.14 15.68 -20 15 C-20 14.34 -20 13.68 -20 13 C-21.00160156 13.2165625 -22.00320313 13.433125 -23.03515625 13.65625 C-24.37752737 13.93786632 -25.71997971 14.21909566 -27.0625 14.5 C-27.71927734 14.64308594 -28.37605469 14.78617188 -29.05273438 14.93359375 C-33.43139988 15.83952455 -37.50418704 16.14031146 -42 16 C-42.33 14.35 -42.66 12.7 -43 11 C-41.79988281 10.86464844 -40.59976562 10.72929687 -39.36328125 10.58984375 C-25.94590247 8.91301112 -12.19886795 6.09943397 0 0 Z " fill="#103D29" transform="translate(382,128)"/>
<path d="M0 0 C3.29394956 0.69871657 6.15105426 1.86379694 9.1875 3.3125 C10.50814453 3.92544922 10.50814453 3.92544922 11.85546875 4.55078125 C14 6 14 6 14.80078125 8.04296875 C15 10 15 10 15 12 C15.391875 11.484375 15.78375 10.96875 16.1875 10.4375 C16.785625 9.963125 17.38375 9.48875 18 9 C20.61328125 9.41015625 20.61328125 9.41015625 23 10 C20.89179935 21.55024825 20.89179935 21.55024825 19 25 C18.01 25.33 17.02 25.66 16 26 C16.20625 26.5775 16.4125 27.155 16.625 27.75 C17.08661261 30.51967567 16.42944945 31.64561267 15 34 C12.5 32.1875 12.5 32.1875 10 30 C10 29.01 10 28.02 10 27 C9.01 26.67 8.02 26.34 7 26 C7 25.67 7 25.34 7 25 C9.64 25 12.28 25 15 25 C15.69571879 21.5194493 15.69571879 21.5194493 16 18 C15.46375 18.99 14.9275 19.98 14.375 21 C12 24 12 24 8.9375 24.5625 C6 24 6 24 4.1875 22.875 C2.57771731 20.33323785 2.32890991 17.9601892 2 15 C1.34 15 0.68 15 0 15 C-1.0024305 9.65370398 -0.84888195 5.37625234 0 0 Z " fill="#103D29" transform="translate(282,257)"/>
<path d="M0 0 C5.47922655 3.87324636 9.87004036 7.71240016 14 13 C12.68 13.33 11.36 13.66 10 14 C10 14.66 10 15.32 10 16 C10.5775 15.649375 11.155 15.29875 11.75 14.9375 C14 14 14 14 16.125 14.125 C18.575137 15.26839727 19.04432617 16.53117594 20 19 C15.126739 20.5912689 11.19209404 21.21192221 6 21 C6 21.66 6 22.32 6 23 C7.44632812 22.65775391 7.44632812 22.65775391 8.921875 22.30859375 C10.18515625 22.02113281 11.4484375 21.73367187 12.75 21.4375 C14.00296875 21.14746094 15.2559375 20.85742188 16.546875 20.55859375 C20.80817112 19.86926644 22.67761472 20.15514274 26.25 22.4375 C26.8275 22.953125 27.405 23.46875 28 24 C28 24.66 28 25.32 28 26 C19.85956596 28.17423358 12.4342927 29.45636453 4 29 C3.6603981 27.12612523 3.32861309 25.25083303 3 23.375 C2.814375 22.33085938 2.62875 21.28671875 2.4375 20.2109375 C2.01284203 17.09425135 1.92454794 14.14069188 2 11 C3.32 10.67 4.64 10.34 6 10 C6 9.34 6 8.68 6 8 C4.35 8.33 2.7 8.66 1 9 C0.67 6.03 0.34 3.06 0 0 Z " fill="#103D29" transform="translate(326,78)"/>
<path d="M0 0 C0.086985 3.77068832 0.14038579 7.54111932 0.1875 11.3125 C0.21263672 12.38435547 0.23777344 13.45621094 0.26367188 14.56054688 C0.27333984 15.58857422 0.28300781 16.61660156 0.29296875 17.67578125 C0.3086792 18.62364502 0.32438965 19.57150879 0.34057617 20.5480957 C-0.05524357 23.39771408 -0.77824719 24.24976105 -3 26 C-3 25.01 -3 24.02 -3 23 C-3.94875 22.855625 -4.8975 22.71125 -5.875 22.5625 C-9 22 -9 22 -11 21 C-16.10874422 20.24498657 -16.10874422 20.24498657 -20.6015625 22.19921875 C-22.90456549 24.87258772 -24.59185164 27.4627142 -25 31 C-25.66 31 -26.32 31 -27 31 C-28.32 33.31 -29.64 35.62 -31 38 C-31.66 38 -32.32 38 -33 38 C-31.76841464 32.66313011 -29.05305273 29.27440523 -25.6796875 25.1171875 C-23.8872556 22.85788962 -22.43752233 20.49674931 -21 18 C-20.34 17.34 -19.68 16.68 -19 16 C-18.566875 15.54625 -18.13375 15.0925 -17.6875 14.625 C-16 13 -16 13 -13.75 11.25 C-10.83543038 8.86535213 -8.26045992 6.29251276 -5.6484375 3.5859375 C-1.92118227 0 -1.92118227 0 0 0 Z " fill="#1A4733" transform="translate(430,196)"/>
<path d="M0 0 C0 0.66 0 1.32 0 2 C-12.99626755 7.77937857 -26.34141867 10.21238726 -40.5 10.0625 C-41.32242187 10.05798828 -42.14484375 10.05347656 -42.9921875 10.04882812 C-44.99482396 10.03718489 -46.99742227 10.01925556 -49 10 C-49 9.01 -49 8.02 -49 7 C-37.20159628 1.94078269 -26.20911333 0.10722015 -13.5 -0.6875 C-12.35108276 -0.76049316 -12.35108276 -0.76049316 -11.17895508 -0.83496094 C-7.28179161 -1.03642703 -3.78424158 -0.99861931 0 0 Z " fill="#103D29" transform="translate(400,155)"/>
<path d="M0 0 C3.04860014 1.01620005 3.86666922 1.77391571 6 4 C6.66 4.33 7.32 4.66 8 5 C8 5.99 8 6.98 8 8 C8.928125 8.433125 8.928125 8.433125 9.875 8.875 C12 10 12 10 14 12 C16.43252661 12.46162427 16.43252661 12.46162427 19.125 12.625 C20.03507812 12.69976562 20.94515625 12.77453125 21.8828125 12.8515625 C22.93082031 12.92503906 22.93082031 12.92503906 24 13 C24 13.33 24 13.66 24 14 C22.02 14.33 20.04 14.66 18 15 C22.02167317 17.96837781 25.00088076 19.52389341 30 20 C29.67 20.66 29.34 21.32 29 22 C31.72379681 23.34538144 34.45313508 24.67641535 37.1875 26 C37.95642578 26.3815625 38.72535156 26.763125 39.51757812 27.15625 C44.98545398 29.81151808 44.98545398 29.81151808 51 30 C51 30.66 51 31.32 51 32 C55.62 33.98 60.24 35.96 65 38 C64.13375 36.7625 63.2675 35.525 62.375 34.25 C60.8984375 32.140625 60.8984375 32.140625 60 30 C60.8515625 27.734375 60.8515625 27.734375 62 26 C62.32613281 26.60328125 62.65226562 27.2065625 62.98828125 27.828125 C63.42527344 28.62734375 63.86226563 29.4265625 64.3125 30.25 C64.95638672 31.43335938 64.95638672 31.43335938 65.61328125 32.640625 C66.9396214 34.89727134 68.38884224 36.93998597 70 39 C70.66 37.35 71.32 35.7 72 34 C72.66 34 73.32 34 74 34 C73.67 36.97 73.34 39.94 73 43 C25.92190772 28.53723666 25.92190772 28.53723666 13 15 C11.48652258 13.65832272 9.96501481 12.32567354 8.4375 11 C5.27751249 8.2086777 2.37792883 5.51519914 0 2 C0 1.34 0 0.68 0 0 Z " fill="#305B46" transform="translate(255,355)"/>
<path d="M0 0 C0.66 0 1.32 0 2 0 C2.495 0.99 2.99 1.98 3.5 3 C6.18756606 7.76166595 10.03523593 11.2950627 14 15 C12.45454854 20.47932789 9.84456788 25.11429181 7 30 C4 29 4 29 2 26 C2.3830153 23.03163146 3.59583294 20.62111184 5 18 C4.34 18 3.68 18 3 18 C2.01 20.475 2.01 20.475 1 23 C-1 23 -1 23 -2.625 21.5 C-3.07875 21.005 -3.5325 20.51 -4 20 C-2.63408831 16.45756548 -1.09068516 13.07372071 0.625 9.6875 C1.07101562 8.80449219 1.51703125 7.92148437 1.9765625 7.01171875 C2.31429688 6.34785156 2.65203125 5.68398438 3 5 C2.34 5 1.68 5 1 5 C0.88785156 5.56203125 0.77570313 6.1240625 0.66015625 6.703125 C-0.09057339 9.31513108 -1.21167376 11.39471322 -2.5625 13.75 C-3.01753906 14.54921875 -3.47257812 15.3484375 -3.94140625 16.171875 C-4.29074219 16.77515625 -4.64007813 17.3784375 -5 18 C-5.99 17.34 -6.98 16.68 -8 16 C-5.36 10.72 -2.72 5.44 0 0 Z " fill="#103D29" transform="translate(282,277)"/>
<path d="M0 0 C0.09579384 8.07861415 0.12513633 15.98340366 -1 24 C-4.875 22.125 -4.875 22.125 -6 21 C-5.90903444 18.13311752 -5.76232012 15.29699485 -5.5625 12.4375 C-5.51029297 11.63119141 -5.45808594 10.82488281 -5.40429688 9.99414062 C-5.27422624 7.99578262 -5.13770944 5.99784614 -5 4 C-5.66 4 -6.32 4 -7 4 C-6.97679687 4.75925781 -6.95359375 5.51851563 -6.9296875 6.30078125 C-6.90261719 7.79158203 -6.90261719 7.79158203 -6.875 9.3125 C-6.85179687 10.29863281 -6.82859375 11.28476563 -6.8046875 12.30078125 C-7 15 -7 15 -9 18 C-9.4125 17.38125 -9.825 16.7625 -10.25 16.125 C-11.80756012 13.93173079 -11.80756012 13.93173079 -13.875 13.09375 C-16.31679443 11.83694404 -17.84989866 10.34818216 -19.75 8.375 C-20.36359375 7.74335937 -20.9771875 7.11171875 -21.609375 6.4609375 C-22.29773438 5.73777344 -22.29773438 5.73777344 -23 5 C-22.67 4.34 -22.34 3.68 -22 3 C-14.77901054 0.86407639 -7.52502491 -0.45150149 0 0 Z " fill="#113E2A" transform="translate(351,70)"/>
<path d="M0 0 C2.475 5.445 2.475 5.445 5 11 C-1.73092296 12.79491279 -8.25262453 13.30067747 -15.1875 13.4375 C-16.0424707 13.47166016 -16.89744141 13.50582031 -17.77832031 13.54101562 C-24.10695623 13.58525463 -27.23555179 12.18420418 -32 8 C-32 7.67 -32 7.34 -32 7 C-30.10590022 6.77645393 -28.2095652 6.57180049 -26.3125 6.375 C-24.72888672 6.20097656 -24.72888672 6.20097656 -23.11328125 6.0234375 C-19.86283654 5.9989674 -17.89769204 6.59147437 -15 8 C-14.67 6.35 -14.34 4.7 -14 3 C-12.0424015 2.49713066 -10.08389623 1.9977901 -8.125 1.5 C-7.03445313 1.2215625 -5.94390625 0.943125 -4.8203125 0.65625 C-2 0 -2 0 0 0 Z " fill="#0F3C28" transform="translate(304,362)"/>
<path d="M0 0 C0.33 0 0.66 0 1 0 C1.46552314 11.46566262 -0.02908551 17.89896823 -7.2890625 26.84375 C-8.76177756 28.69977445 -10.05526004 30.55847841 -11.3125 32.5625 C-11.869375 33.366875 -12.42625 34.17125 -13 35 C-13.66 35 -14.32 35 -15 35 C-15.268125 35.763125 -15.53625 36.52625 -15.8125 37.3125 C-16.95134505 39.88988618 -17.81416671 41.26954864 -20 43 C-20.66 43 -21.32 43 -22 43 C-21.47343968 38.69273656 -18.75428474 35.82117443 -16.125 32.5625 C-13.14168139 28.82690364 -10.35861701 25.1783447 -8 21 C-10.92419007 23.92419007 -13.20943949 27.61167746 -15.67578125 30.921875 C-16.44277344 31.93765625 -17.20976562 32.9534375 -18 34 C-18.71542969 34.95390625 -19.43085938 35.9078125 -20.16796875 36.890625 C-20.77253906 37.58671875 -21.37710937 38.2828125 -22 39 C-22.66 39 -23.32 39 -24 39 C-23.39844441 35.80255821 -22.38140382 33.8994907 -20.33984375 31.3828125 C-19.79690674 30.69985107 -19.25396973 30.01688965 -18.69458008 29.31323242 C-18.11474365 28.59111572 -17.53490723 27.86899902 -16.9375 27.125 C-10.21678928 18.56843282 -4.80301927 9.77165989 0 0 Z " fill="#103D29" transform="translate(335,332)"/>
<path d="M0 0 C3.12915801 2.6862618 4.7642676 5.95391929 6.6875 9.5625 C7.31011719 10.71878906 7.93273437 11.87507813 8.57421875 13.06640625 C10 16 10 16 10 18 C2.25 18.125 2.25 18.125 0 17 C0 17.66 0 18.32 0 19 C3.96 19.33 7.92 19.66 12 20 C12.66 21.65 13.32 23.3 14 25 C12.29203442 25.05470352 10.58354375 25.09310718 8.875 25.125 C7.92367187 25.14820313 6.97234375 25.17140625 5.9921875 25.1953125 C3 25 3 25 -3 23 C-2.67 18.38 -2.34 13.76 -2 9 C-0.35 9 1.3 9 3 9 C3 8.34 3 7.68 3 7 C1.68 7 0.36 7 -1 7 C-1.04254356 5.00045254 -1.04080783 2.99958364 -1 1 C-0.67 0.67 -0.34 0.34 0 0 Z " fill="#103D29" transform="translate(241,250)"/>
<path d="M0 0 C2.00134382 -0.0021443 4.00264945 -0.02052014 6.00390625 -0.03930664 C18.82400303 -0.05838417 30.6203917 0.43585098 41.80078125 7.18530273 C41.47078125 9.49530273 41.14078125 11.80530273 40.80078125 14.18530273 C40.47078125 14.18530273 40.14078125 14.18530273 39.80078125 14.18530273 C39.30578125 11.21530273 39.30578125 11.21530273 38.80078125 8.18530273 C38.14078125 8.51530273 37.48078125 8.84530273 36.80078125 9.18530273 C36.14864833 11.20993529 36.14864833 11.20993529 35.80078125 13.18530273 C35.14078125 11.20530273 34.48078125 9.22530273 33.80078125 7.18530273 C27.20078125 6.19530273 20.60078125 5.20530273 13.80078125 4.18530273 C13.80078125 5.83530273 13.80078125 7.48530273 13.80078125 9.18530273 C13.14078125 8.85530273 12.48078125 8.52530273 11.80078125 8.18530273 C11.80078125 6.86530273 11.80078125 5.54530273 11.80078125 4.18530273 C7.51078125 3.85530273 3.22078125 3.52530273 -1.19921875 3.18530273 C-1.19921875 4.17530273 -1.19921875 5.16530273 -1.19921875 6.18530273 C-1.85921875 6.18530273 -2.51921875 6.18530273 -3.19921875 6.18530273 C-3.19921875 5.19530273 -3.19921875 4.20530273 -3.19921875 3.18530273 C-3.85921875 3.18530273 -4.51921875 3.18530273 -5.19921875 3.18530273 C-5.52921875 3.84530273 -5.85921875 4.50530273 -6.19921875 5.18530273 C-6.19921875 4.52530273 -6.19921875 3.86530273 -6.19921875 3.18530273 C-7.14796875 3.22655273 -8.09671875 3.26780273 -9.07421875 3.31030273 C-12.19921875 3.18530273 -12.19921875 3.18530273 -14.19921875 1.18530273 C-10.02316305 -0.90272511 -4.59262982 -0.00054883 0 0 Z " fill="#2D5A46" transform="translate(365.19921875,65.814697265625)"/>
<path d="M0 0 C0.495 0.99 0.495 0.99 1 2 C-5.28992461 1.17957505 -5.28992461 1.17957505 -8.0234375 0.48828125 C-21.86472679 -2.93561663 -36.33732891 -1.43098467 -50 2 C-49.67 3.65 -49.34 5.3 -49 7 C-48.34 7 -47.68 7 -47 7 C-45.31183067 8.64488294 -43.64646685 10.31337542 -42 12 C-39.08235 13.9451 -37.37462715 14.45276317 -34 15 C-34 15.66 -34 16.32 -34 17 C-33.030625 17.12375 -32.06125 17.2475 -31.0625 17.375 C-29.5465625 17.684375 -29.5465625 17.684375 -28 18 C-26.67770811 20.64458379 -26.90322806 22.67761301 -26.9375 25.625 C-26.94652344 26.62789062 -26.95554687 27.63078125 -26.96484375 28.6640625 C-26.97644531 29.43492188 -26.98804688 30.20578125 -27 31 C-27.66 31 -28.32 31 -29 31 C-29 27.7 -29 24.4 -29 21 C-32.74691447 19.60229416 -32.74691447 19.60229416 -35 21 C-35.56847656 20.40960938 -36.13695312 19.81921875 -36.72265625 19.2109375 C-38.86278345 17.13321538 -41.04111231 15.39425677 -43.4375 13.625 C-47.24040349 10.69437965 -50.27155929 7.96063974 -53 4 C-53 2.68 -53 1.36 -53 0 C-34.83811264 -4.80882124 -18.07417532 -6.07647121 0 0 Z " fill="#184531" transform="translate(387,51)"/>
<path d="M0 0 C1.81883009 2.3832946 3 3.95818337 3 7 C1.61256594 7.70429659 0.21455365 8.38777598 -1.1875 9.0625 C-1.96480469 9.44535156 -2.74210937 9.82820313 -3.54296875 10.22265625 C-8.42105839 11.76596283 -12.02112692 9.65578731 -16.41601562 7.42382812 C-17.04185547 7.09833984 -17.66769531 6.77285156 -18.3125 6.4375 C-19.28026367 5.9434668 -19.28026367 5.9434668 -20.26757812 5.43945312 C-21.84785228 4.63175745 -23.42432105 3.81662387 -25 3 C-25 2.67 -25 2.34 -25 2 C-21.77125066 1.66254072 -18.5419413 1.33076631 -15.3125 1 C-13.94448242 0.85691406 -13.94448242 0.85691406 -12.54882812 0.7109375 C-11.21948242 0.57558594 -11.21948242 0.57558594 -9.86328125 0.4375 C-9.05157471 0.35371094 -8.23986816 0.26992188 -7.40356445 0.18359375 C-2.50436008 -0.19062684 -2.50436008 -0.19062684 0 0 Z " fill="#103D29" transform="translate(310,375)"/>
<path d="M0 0 C5.36443913 0.3742632 7.49646001 1.9959543 11 6 C11.495 6.495 11.495 6.495 12 7 C12.04063832 8.66617115 12.042721 10.33388095 12 12 C8.9802079 13.43969458 5.95897965 14.87635087 2.9375 16.3125 C2.08994141 16.71662109 1.24238281 17.12074219 0.36914062 17.53710938 C-19.55692557 27.00006745 -19.55692557 27.00006745 -26 25 C-20.94761502 22.75891585 -15.86008191 20.88828442 -10.625 19.125 C-4.9408135 17.17680331 0.30695065 15.07316965 5.43359375 11.8828125 C7 11 7 11 9 11 C8.01 9.68 7.02 8.36 6 7 C1.51313495 8.38057386 -2.63065251 10.16631366 -6.8515625 12.1953125 C-9 13 -9 13 -13 13 C-13 12.34 -13 11.68 -13 11 C-12.16855469 10.73445312 -11.33710938 10.46890625 -10.48046875 10.1953125 C-9.39378906 9.84210938 -8.30710937 9.48890625 -7.1875 9.125 C-5.56908203 8.60292969 -5.56908203 8.60292969 -3.91796875 8.0703125 C-0.86684198 7.08040347 -0.86684198 7.08040347 2 5 C1.34 3.35 0.68 1.7 0 0 Z " fill="#2B5844" transform="translate(418,158)"/>
<path d="M0 0 C5.91492272 0.45224761 11.35199888 1.1582605 17 3 C16.00481422 9.50799121 14.60861828 14.4667853 11 20 C10.01 19.01 9.02 18.02 8 17 C8.309375 16.2575 8.61875 15.515 8.9375 14.75 C9.8094925 12.49307824 10.47667007 10.3549847 11 8 C10.01 9.98 9.02 11.96 8 14 C7.34 13.67 6.68 13.34 6 13 C6.50603992 10.83125748 6.99983813 9.00032373 8 7 C7.34 7 6.68 7 6 7 C6 7.66 6 8.32 6 9 C5.34 9 4.68 9 4 9 C0 2.25 0 2.25 0 0 Z " fill="#113E2A" transform="translate(244,247)"/>
<path d="M0 0 C1.6396875 0.2165625 1.6396875 0.2165625 3.3125 0.4375 C8.529258 1.09310693 13.76234747 1.54748223 19 2 C19.29648437 2.79019531 19.59296875 3.58039063 19.8984375 4.39453125 C20.98695207 6.9691384 22.02212975 8.11203294 24 10 C24 10.66 24 11.32 24 12 C21.24846929 11.38120598 18.49891102 10.75523814 15.75 10.125 C14.97269531 9.95097656 14.19539062 9.77695312 13.39453125 9.59765625 C12.64042969 9.42363281 11.88632813 9.24960937 11.109375 9.0703125 C10.41811523 8.91320801 9.72685547 8.75610352 9.01464844 8.59423828 C6.85056265 7.95592214 5.00135396 7.03283974 3 6 C1.6757713 5.63215869 0.34386088 5.28797019 -1 5 C-0.67 3.35 -0.34 1.7 0 0 Z " fill="#113E2A" transform="translate(238,275)"/>
<path d="M0 0 C0.33 0 0.66 0 1 0 C1.05402274 2.10388569 1.09280256 4.20816714 1.125 6.3125 C1.14820313 7.48425781 1.17140625 8.65601563 1.1953125 9.86328125 C1 13 1 13 -1 16 C-5.85174085 17.46680537 -9.27364406 16.60696102 -14 15 C-14 14.34 -14 13.68 -14 13 C-13.01 12.67 -12.02 12.34 -11 12 C-10.67 11.67 -10.34 11.34 -10 11 C-9.360625 10.566875 -8.72125 10.13375 -8.0625 9.6875 C-5.9007737 7.91881485 -5.05537267 6.55048396 -4 4 C-3.34 4 -2.68 4 -2 4 C-1.34 2.68 -0.68 1.36 0 0 Z " fill="#123F2B" transform="translate(429,198)"/>
<path d="M0 0 C6.2382256 0.87554044 11.23018741 2.89632165 16.75 5.8125 C17.38752197 6.14378906 18.02504395 6.47507812 18.68188477 6.81640625 C22.80869823 9.06376114 25.82802952 11.53141395 29 15 C27.68 15 26.36 15 25 15 C24.67 15.66 24.34 16.32 24 17 C23.67 16.34 23.34 15.68 23 15 C22.01 15.99 21.02 16.98 20 18 C20 16.02 20 14.04 20 12 C15.38 9.69 10.76 7.38 6 5 C5.67 7.64 5.34 10.28 5 13 C4.67 13 4.34 13 4 13 C3.875 6.25 3.875 6.25 5 4 C2.525 3.01 2.525 3.01 0 2 C0 1.34 0 0.68 0 0 Z " fill="#285541" transform="translate(276,252)"/>
<path d="M0 0 C3.59391114 1.33488128 6.75490696 2.96022723 10 5 C9.67 4.01 9.34 3.02 9 2 C13.455 1.505 13.455 1.505 18 1 C17.50168276 4.68754757 16.89932357 6.60490662 14 9 C14 8.34 14 7.68 14 7 C8.93913155 7.75047099 4.58203928 9.85871344 -0.00390625 12.00390625 C-4.68131868 14.10622711 -4.68131868 14.10622711 -8 13 C-2.85714286 7.42857143 -2.85714286 7.42857143 1 7 C0.01 5.68 -0.98 4.36 -2 3 C-1.236875 3.33 -0.47375 3.66 0.3125 4 C2.99069135 5.17436686 2.99069135 5.17436686 6 5 C5.01 4.360625 4.02 3.72125 3 3.0625 C2.01 2.381875 1.02 1.70125 0 1 C0 0.67 0 0.34 0 0 Z " fill="#174430" transform="translate(366,350)"/>
<path d="M0 0 C0.66 0 1.32 0 2 0 C1.66309233 7.62108386 1.00904307 13.97889951 -2 21 C-2.37966646 22.65672637 -2.73760976 24.32070245 -3 26 C-3.99 26 -4.98 26 -6 26 C-5.73958333 24.01432292 -5.47916667 22.02864583 -5.21875 20.04296875 C-4.946767 17.84528294 -4.946767 17.84528294 -5 15 C-5 13.68 -5 12.36 -5 11 C-7.64 13.64 -10.28 16.28 -13 19 C-13 14.89253434 -11.36039564 13.80245139 -8.625 10.8125 C-7.81289063 9.91144531 -7.00078125 9.01039063 -6.1640625 8.08203125 C-4 6 -4 6 -2 6 C-1.855625 5.38125 -1.71125 4.7625 -1.5625 4.125 C-1 2 -1 2 0 0 Z " fill="#25523E" transform="translate(333,361)"/>
<path d="M0 0 C0.66 0 1.32 0 2 0 C2.47067208 7.94247251 1.38714222 14.04242494 -1.4375 21.4375 C-5.36590366 32.47328344 -7.27277184 41.54529856 -4 53 C-3.66013333 54.66534667 -3.32297514 56.33129513 -3 58 C-7.13584162 54.61612958 -7.85327254 50.28159295 -8.44140625 45.14453125 C-8.85959189 35.36420051 -7.29572214 27.76591796 -3.57617188 18.72851562 C-1.03428838 12.49124504 0.09474856 6.78129007 0 0 Z " fill="#184531" transform="translate(420,0)"/>
<path d="M0 0 C-24.17476462 8.19483546 -24.17476462 8.19483546 -34.8125 8.0625 C-35.50537109 8.05798828 -36.19824219 8.05347656 -36.91210938 8.04882812 C-38.60811068 8.03713156 -40.30406703 8.01919924 -42 8 C-42.33 7.34 -42.66 6.68 -43 6 C-41.02 5.34 -39.04 4.68 -37 4 C-37.33 4.99 -37.66 5.98 -38 7 C-37.44570313 6.69964844 -36.89140625 6.39929688 -36.3203125 6.08984375 C-35.59585937 5.70957031 -34.87140625 5.32929688 -34.125 4.9375 C-33.40570313 4.55464844 -32.68640625 4.17179688 -31.9453125 3.77734375 C-30.98238281 3.39255859 -30.98238281 3.39255859 -30 3 C-29.34 3.33 -28.68 3.66 -28 4 C-28.33 4.33 -28.66 4.66 -29 5 C-22.39281595 4.56453143 -22.39281595 4.56453143 -17 1 C-17 1.66 -17 2.32 -17 3 C-16.34 2.71125 -15.68 2.4225 -15 2.125 C-12.64336269 1.24126101 -10.35916223 0.4778913 -7.9375 -0.1875 C-7.28652344 -0.36667969 -6.63554687 -0.54585937 -5.96484375 -0.73046875 C-3.71601442 -1.03895627 -2.15001228 -0.67517089 0 0 Z " fill="#174430" transform="translate(376,219)"/>
<path d="M0 0 C0.33 0 0.66 0 1 0 C1.33 5.61 1.66 11.22 2 17 C3.65 16.01 5.3 15.02 7 14 C7 14.99 7 15.98 7 17 C6.0925 17.639375 5.185 18.27875 4.25 18.9375 C-0.52904778 22.584072 -1.49156588 28.43654005 -3 34 C-7 34 -7 34 -9 33 C-8.38125 32.360625 -7.7625 31.72125 -7.125 31.0625 C-4.43405212 27.18436924 -3.76093455 23.59564421 -3 19 C-2.34 19.33 -1.68 19.66 -1 20 C-0.67 13.4 -0.34 6.8 0 0 Z " fill="#1B4834" transform="translate(338,326)"/>
<path d="M0 0 C4.16036483 1.32960113 6.06772922 2.86021231 8.625 6.375 C9.19476563 7.14585937 9.76453125 7.91671875 10.3515625 8.7109375 C10.89554687 9.46632813 11.43953125 10.22171875 12 11 C12.56460937 11.69351562 13.12921875 12.38703125 13.7109375 13.1015625 C15 15 15 15 15 18 C11.24623848 16.74874616 10.75926711 15.4347596 9 12 C9 11.34 9 10.68 9 10 C8.01 10 7.02 10 6 10 C5.67 11.32 5.34 12.64 5 14 C4.34 14 3.68 14 3 14 C3.66 11.36 4.32 8.72 5 6 C4.34 6 3.68 6 3 6 C2.34 7.65 1.68 9.3 1 11 C0 9 0 9 0.5 6.0625 C1.24846895 2.97047565 1.24846895 2.97047565 0 0 Z " fill="#285440" transform="translate(310,272)"/>
<path d="M0 0 C0.66 0.33 1.32 0.66 2 1 C2.42596145 6.91021507 1.25707786 10.4076958 -1.5 15.4375 C-1.83386719 16.07365234 -2.16773438 16.70980469 -2.51171875 17.36523438 C-3.32840122 18.91693107 -4.1624334 20.45947571 -5 22 C-5.99 22 -6.98 22 -8 22 C-7.29807915 17.06678166 -5.36469225 12.74025318 -3.4375 8.1875 C-3.10814453 7.39923828 -2.77878906 6.61097656 -2.43945312 5.79882812 C-1.63041094 3.86416204 -0.81576148 1.93184247 0 0 Z " fill="#103D29" transform="translate(279,270)"/>
<path d="M0 0 C3.3 0.66 6.6 1.32 10 2 C9.01 2.33 8.02 2.66 7 3 C7 4.98 7 6.96 7 9 C8.32 9.33 9.64 9.66 11 10 C10.01 10.33 9.02 10.66 8 11 C7.67 12.98 7.34 14.96 7 17 C6.67 17 6.34 17 6 17 C5.67 14.69 5.34 12.38 5 10 C2.525 9.01 2.525 9.01 0 8 C0 10.31 0 12.62 0 15 C-0.33 15 -0.66 15 -1 15 C-1.10251672 9.87416389 -1.03590199 5.05002222 0 0 Z " fill="#1C4935" transform="translate(407,75)"/>
<path d="M0 0 C0.33 0 0.66 0 1 0 C1.02578125 1.13179687 1.0515625 2.26359375 1.078125 3.4296875 C1.13439626 4.91149743 1.19174382 6.39326677 1.25 7.875 C1.26417969 8.62136719 1.27835937 9.36773437 1.29296875 10.13671875 C1.35986341 12.57138381 1.35986341 12.57138381 2 16 C3.90628782 17.60337399 3.90628782 17.60337399 6 18 C6.33 16.68 6.66 15.36 7 14 C7 15.65 7 17.3 7 19 C7.66 19 8.32 19 9 19 C9.33 17.68 9.66 16.36 10 15 C10.45375 15.804375 10.9075 16.60875 11.375 17.4375 C12.74725665 20.08856572 12.74725665 20.08856572 15 21 C15 21.66 15 22.32 15 23 C13.37373596 24.38232443 11.7074998 25.71937515 10 27 C9.34 26.67 8.68 26.34 8 26 C8.99 25.01 9.98 24.02 11 23 C9.68 22.67 8.36 22.34 7 22 C7 21.34 7 20.68 7 20 C5.68 20.33 4.36 20.66 3 21 C3 20.34 3 19.68 3 19 C1.68 18.67 0.36 18.34 -1 18 C-0.505 9.09 -0.505 9.09 0 0 Z " fill="#184531" transform="translate(347,186)"/>
<path d="M0 0 C0.33 0 0.66 0 1 0 C1.36923077 7.50769231 1.36923077 7.50769231 -0.5 10 C-0.995 10.33 -1.49 10.66 -2 11 C-2 10.01 -2 9.02 -2 8 C-2.825 7.896875 -3.65 7.79375 -4.5 7.6875 C-8.59289012 6.88353944 -12.12540225 5.53647842 -16 4 C-16 3.34 -16 2.68 -16 2 C-11.05 2.33 -6.1 2.66 -1 3 C-0.67 2.01 -0.34 1.02 0 0 Z " fill="#25523E" transform="translate(429,211)"/>
<path d="M0 0 C1.98 3.63 3.96 7.26 6 11 C0.31497465 9.35433477 -4.76681636 6.70967216 -10 4 C-6.86268382 1.90845588 -3.85464592 0 0 0 Z " fill="#103D29" transform="translate(315,383)"/>
<path d="M0 0 C0.66 0 1.32 0 2 0 C2.98838433 2.0372203 3.96532252 4.07999607 4.9375 6.125 C5.48277344 7.26195312 6.02804687 8.39890625 6.58984375 9.5703125 C7.9103119 12.78186661 8.58784221 15.56709079 9 19 C8.01 19 7.02 19 6 19 C5.5978125 17.1746875 5.5978125 17.1746875 5.1875 15.3125 C4.31505639 11.77878956 3.07843061 9.0231718 1 6 C0.01 8.64 -0.98 11.28 -2 14 C-3.21065165 10.36804504 -2.62784815 8.93468371 -1.5625 5.3125 C-1.27503906 4.31863281 -0.98757813 3.32476562 -0.69140625 2.30078125 C-0.46324219 1.54152344 -0.23507812 0.78226562 0 0 Z " fill="#2A5743" transform="translate(325,291)"/>
<path d="M0 0 C1.41655793 -0.0272415 2.83327045 -0.04650467 4.25 -0.0625 C5.43335938 -0.07990234 5.43335938 -0.07990234 6.640625 -0.09765625 C8.90691002 -0.00385306 10.8288895 0.36758937 13 1 C13 2.65 13 4.3 13 6 C8.71 5.34 4.42 4.68 0 4 C0 2.68 0 1.36 0 0 Z " fill="#103D29" transform="translate(364,69)"/>
<path d="M0 0 C0.33 0 0.66 0 1 0 C1 5.33333333 1 10.66666667 1 16 C0.67 15.67 0.34 15.34 0 15 C0.58174845 20.3086849 0.58174845 20.3086849 3 25 C2.34 25 1.68 25 1 25 C0.34 26.32 -0.32 27.64 -1 29 C-2.36994697 24.8901591 -2.18423433 21.05414845 -2.1875 16.75 C-2.19974609 15.91597656 -2.21199219 15.08195312 -2.22460938 14.22265625 C-2.23670765 9.08492317 -1.66346536 4.8654718 0 0 Z " fill="#184531" transform="translate(393,246)"/>
<path d="M0 0 C5.82271337 -0.59720137 9.9209404 1.471757 15 4 C13 6 13 6 9.1875 6.5 C6.57676164 6.46195645 5.39990518 6.32832311 3.36328125 4.65625 C2 3 2 3 0 0 Z " fill="#103D29" transform="translate(264,362)"/>
<path d="M0 0 C0.33 0 0.66 0 1 0 C1 4.95 1 9.9 1 15 C-0.98 13.35 -2.96 11.7 -5 10 C-3.35 6.7 -1.7 3.4 0 0 Z " fill="#1C4935" transform="translate(429,321)"/>
<path d="M0 0 C0.66 0 1.32 0 2 0 C1.67 1.65 1.34 3.3 1 5 C1.66 5.33 2.32 5.66 3 6 C2.01 6 1.02 6 0 6 C0 6.99 0 7.98 0 9 C1.32 9.33 2.64 9.66 4 10 C2.68 10.33 1.36 10.66 0 11 C0.66 11.66 1.32 12.32 2 13 C1.01 13 0.02 13 -1 13 C-1.66 14.32 -2.32 15.64 -3 17 C-3.23534715 11.23399495 -2.93384486 6.46026785 -1 1 C-0.67 0.67 -0.34 0.34 0 0 Z " fill="#194632" transform="translate(414,294)"/>
<path d="M0 0 C0.99 0.33 1.98 0.66 3 1 C3 1.33 3 1.66 3 2 C3.969375 2.12375 4.93875 2.2475 5.9375 2.375 C7.4534375 2.684375 7.4534375 2.684375 9 3 C10.32229189 5.64458379 10.09677194 7.67761301 10.0625 10.625 C10.05347656 11.62789062 10.04445313 12.63078125 10.03515625 13.6640625 C10.02355469 14.43492188 10.01195312 15.20578125 10 16 C9.34 16 8.68 16 8 16 C8 12.7 8 9.4 8 6 C4.25308553 4.60229416 4.25308553 4.60229416 2 6 C1.01 4.68 0.02 3.36 -1 2 C-0.67 1.34 -0.34 0.68 0 0 Z " fill="#224F3B" transform="translate(350,66)"/>
<path d="M0 0 C14.78132118 -0.3690205 14.78132118 -0.3690205 21 2 C21 2.33 21 2.66 21 3 C15.25 3.125 15.25 3.125 13 2 C12.67 2.66 12.34 3.32 12 4 C12 3.34 12 2.68 12 2 C11.01 2 10.02 2 9 2 C8.67 2.99 8.34 3.98 8 5 C8 4.01 8 3.02 8 2 C5.83333333 2.83333333 5.83333333 2.83333333 5 5 C4.67 4.01 4.34 3.02 4 2 C2.68 2 1.36 2 0 2 C0 1.34 0 0.68 0 0 Z " fill="#194632" transform="translate(300,232)"/>
<path d="M0 0 C-1.55477109 4.01112541 -4.14228789 6.07181964 -7.4375 8.75 C-8.40558594 9.54921875 -9.37367188 10.3484375 -10.37109375 11.171875 C-13 13 -13 13 -16 13 C-14.54474941 11.51780033 -13.085701 10.03932861 -11.625 8.5625 C-10.81289063 7.73878906 -10.00078125 6.91507812 -9.1640625 6.06640625 C-7 4 -7 4 -5 3 C-6.32 2.34 -7.64 1.68 -9 1 C-5.92677456 0.08941469 -3.19902639 -0.08886184 0 0 Z " fill="#184531" transform="translate(430,301)"/>
<path d="M0 0 C2 3 2 3 2 5 C1.34 5 0.68 5 0 5 C0 5.66 0 6.32 0 7 C-1.65 7.66 -3.3 8.32 -5 9 C-5 9.66 -5 10.32 -5 11 C-5.99 10.67 -6.98 10.34 -8 10 C-7.50628906 9.61328125 -7.01257813 9.2265625 -6.50390625 8.828125 C-5.86324219 8.30734375 -5.22257813 7.7865625 -4.5625 7.25 C-3.92441406 6.73953125 -3.28632813 6.2290625 -2.62890625 5.703125 C-0.81189446 3.80332371 -0.39576803 2.56413092 0 0 Z M-10 12 C-10 15 -10 15 -11.3125 16.38671875 C-12.875 17.59114583 -14.4375 18.79557292 -16 20 C-16.33 18.35 -16.66 16.7 -17 15 C-16.67 15.66 -16.34 16.32 -16 17 C-15.34 17 -14.68 17 -14 17 C-14 16.34 -14 15.68 -14 15 C-12 13.375 -12 13.375 -10 12 Z " fill="#174430" transform="translate(200,248)"/>
<path d="M0 0 C2.97 0.33 5.94 0.66 9 1 C7.85233823 5.59064709 6.52853761 6.96381647 3 10 C1.68 10.33 0.36 10.66 -1 11 C-0.34 8.03 0.32 5.06 1 2 C2.32 2.66 3.64 3.32 5 4 C5.33 3.67 5.66 3.34 6 3 C4.02 2.34 2.04 1.68 0 1 C0 0.67 0 0.34 0 0 Z " fill="#174430" transform="translate(210,234)"/>
<path d="M0 0 C2.51083114 1.25541557 2.87125446 2.50063488 4 5 C5.32 4.67 6.64 4.34 8 4 C7.34 5.32 6.68 6.64 6 8 C5.34 8 4.68 8 4 8 C5.15173355 10.46800047 6.04783565 12.04783565 8 14 C7.625 16.125 7.625 16.125 7 18 C4.50752478 14.97903433 3.12043668 12.12076995 1.8125 8.4375 C1.46832031 7.48746094 1.12414062 6.53742188 0.76953125 5.55859375 C0 3 0 3 0 0 Z " fill="#184531" transform="translate(293,185)"/>
<path d="M0 0 C3.55086383 0.63112301 6.81580999 1.53217596 10.1875 2.8125 C11.47720703 3.28623047 11.47720703 3.28623047 12.79296875 3.76953125 C15.35013765 5.19520949 15.98735543 6.30150021 17 9 C10.75029999 7.22057153 5.21510863 4.95040926 0 1 C0 0.67 0 0.34 0 0 Z " fill="#2D5A46" transform="translate(406,71)"/>
<path d="M0 0 C1.32 0.66 2.64 1.32 4 2 C4 2.99 4 3.98 4 5 C3.01 4.67 2.02 4.34 1 4 C0.731875 5.258125 0.46375 6.51625 0.1875 7.8125 C-0.60065243 11.51075372 -1.10034027 12.10034027 -4 15 C-3.01 11.7 -2.02 8.4 -1 5 C-1.66 4.67 -2.32 4.34 -3 4 C-2.34 3.34 -1.68 2.68 -1 2 C-0.67 1.34 -0.34 0.68 0 0 Z " fill="#27533F" transform="translate(305,267)"/>
<path d="M0 0 C3.10551666 3.10551666 3.81323934 4.89198233 5 9 C3.02 9.33 1.04 9.66 -1 10 C-0.67 6.7 -0.34 3.4 0 0 Z " fill="#113E2A" transform="translate(294,343)"/>
<path d="M0 0 C0 0.66 0 1.32 0 2 C-4.17737474 3.59138085 -7.53160785 4.21278058 -12 4 C-11.67 3.01 -11.34 2.02 -11 1 C-9.2578125 0.234375 -9.2578125 0.234375 -7.125 -0.25 C-6.07699219 -0.50523437 -6.07699219 -0.50523437 -5.0078125 -0.765625 C-3 -1 -3 -1 0 0 Z " fill="#113E2A" transform="translate(303,359)"/>
<path d="M0 0 C1.5 1.1875 1.5 1.1875 3 3 C3.1875 5.6875 3.1875 5.6875 3 8 C3.66 8 4.32 8 5 8 C5 8.66 5 9.32 5 10 C3.68 9.67 2.36 9.34 1 9 C0.34 10.32 -0.32 11.64 -1 13 C-1.07654536 8.48382401 -1.10228696 4.40914783 0 0 Z " fill="#15422E" transform="translate(425,83)"/>
<path d="M0 0 C2.625 -0.1875 2.625 -0.1875 5 0 C2.43571997 4.17882671 -0.01930733 7.12505529 -4 10 C-2.99806563 6.20696275 -2.18975773 3.28463659 0 0 Z " fill="#103D29" transform="translate(324,367)"/>
<path d="M0 0 C0.66 0.33 1.32 0.66 2 1 C-1.80304814 6.19210472 -5.76158542 11.15609762 -10 16 C-10.99 15.34 -11.98 14.68 -13 14 C-12.01 13.67 -11.02 13.34 -10 13 C-8.1824546 10.844706 -6.48389312 8.7001991 -4.8125 6.4375 C-4.34908203 5.82197266 -3.88566406 5.20644531 -3.40820312 4.57226562 C-2.26576775 3.05294435 -1.13203843 1.52708373 0 0 Z " fill="#275440" transform="translate(316,339)"/>
<path d="M0 0 C5.01508715 1.54058233 9.6147081 3.02931839 14 6 C12 7 12 7 8.7421875 6.00390625 C7.4502948 5.53110016 6.16131362 5.05028031 4.875 4.5625 C4.21628906 4.31951172 3.55757813 4.07652344 2.87890625 3.82617188 C1.25008662 3.22421679 -0.37529575 2.61297588 -2 2 C-1.34 1.34 -0.68 0.68 0 0 Z " fill="#3B624A" transform="translate(306,388)"/>
<path d="M0 0 C0.5 2.1875 0.5 2.1875 0 5 C-2.43100182 7.10353811 -5.03640346 8.75029061 -8 10 C-8.66 9.67 -9.32 9.34 -10 9 C-8.52386015 7.49702124 -7.04400843 5.99768715 -5.5625 4.5 C-4.73878906 3.6646875 -3.91507812 2.829375 -3.06640625 1.96875 C-1 0 -1 0 0 0 Z " fill="#123E2B" transform="translate(330,370)"/>
<path d="M0 0 C2.97 0.495 2.97 0.495 6 1 C5.67 2.32 5.34 3.64 5 5 C0.545 5.495 0.545 5.495 -4 6 C-4 5.01 -4 4.02 -4 3 C-3.34 3 -2.68 3 -2 3 C-1.34 2.01 -0.68 1.02 0 0 Z " fill="#16432F" transform="translate(299,266)"/>
<path d="M0 0 C1.10191901 4.40767604 0.58706842 5.8922935 -1 10 C-5 10 -5 10 -7 9 C-4.69 6.03 -2.38 3.06 0 0 Z " fill="#2B5844" transform="translate(336,350)"/>
<path d="M0 0 C0.66 0.33 1.32 0.66 2 1 C1.34 3.64 0.68 6.28 0 9 C-2.475 8.01 -2.475 8.01 -5 7 C-3.70700306 4.11562221 -2.34058637 2.12780579 0 0 Z " fill="#103D29" transform="translate(327,378)"/>
<path d="M0 0 C0.33 0.99 0.66 1.98 1 3 C-3.455 3.495 -3.455 3.495 -8 4 C-8 3.01 -8 2.02 -8 1 C-5.29120665 -0.35439668 -2.99066732 -0.06501451 0 0 Z " fill="#103D29" transform="translate(300,354)"/>
<path d="M0 0 C2.475 0.495 2.475 0.495 5 1 C5 2.98 5 4.96 5 7 C3.35 6.67 1.7 6.34 0 6 C0 4.02 0 2.04 0 0 Z " fill="#103D29" transform="translate(407,75)"/>
<path d="M0 0 C1.98 0.66 3.96 1.32 6 2 C6 4.31 6 6.62 6 9 C0.42857143 3.85714286 0.42857143 3.85714286 0 0 Z " fill="#113E2A" transform="translate(320,386)"/>
<path d="M0 0 C3.465 1.485 3.465 1.485 7 3 C5.68 4.65 4.36 6.3 3 8 C2.67 7.34 2.34 6.68 2 6 C1.34 5.67 0.68 5.34 0 5 C0 3.35 0 1.7 0 0 Z " fill="#174430" transform="translate(333,369)"/>
<path d="M0 0 C1.45947705 0.06006078 2.91779272 0.1488689 4.375 0.25 C5.59316406 0.31960937 5.59316406 0.31960937 6.8359375 0.390625 C7.55007813 0.59171875 8.26421875 0.7928125 9 1 C9.66 2.32 10.32 3.64 11 5 C7.7 4.34 4.4 3.68 1 3 C0.67 2.01 0.34 1.02 0 0 Z " fill="#2B5844" transform="translate(413,213)"/>
<path d="M0 0 C0.33 0 0.66 0 1 0 C1 1.65 1 3.3 1 5 C1.66 5 2.32 5 3 5 C3.33 3.68 3.66 2.36 4 1 C4 2.98 4 4.96 4 7 C4.99 7.33 5.98 7.66 7 8 C5 9 5 9 3.0546875 8.44140625 C2.33539063 8.15136719 1.61609375 7.86132812 0.875 7.5625 C0.15054687 7.27503906 -0.57390625 6.98757812 -1.3203125 6.69140625 C-1.87460937 6.46324219 -2.42890625 6.23507813 -3 6 C-2.67 5.01 -2.34 4.02 -2 3 C-1.34 3.33 -0.68 3.66 0 4 C0 2.68 0 1.36 0 0 Z " fill="#184531" transform="translate(330,190)"/>
<path d="M0 0 C0.66 0 1.32 0 2 0 C1.67 3.3 1.34 6.6 1 10 C0.01 10 -0.98 10 -2 10 C-1.125 2.25 -1.125 2.25 0 0 Z " fill="#2C5945" transform="translate(329,377)"/>
<path d="M0 0 C0.66 0 1.32 0 2 0 C1.88617347 1.95901454 1.75858875 3.9172338 1.625 5.875 C1.55539062 6.96554688 1.48578125 8.05609375 1.4140625 9.1796875 C1 12 1 12 -1 14 C-1.027193 12.41676312 -1.04648306 10.83338938 -1.0625 9.25 C-1.07410156 8.36828125 -1.08570313 7.4865625 -1.09765625 6.578125 C-1.00826198 4.2181162 -0.66912821 2.25501476 0 0 Z " fill="#285541" transform="translate(398,115)"/>
<path d="M0 0 C1.65 0.33 3.3 0.66 5 1 C1.92000054 4.67230705 -0.2482602 5.56802365 -5 6 C-3.35 4.02 -1.7 2.04 0 0 Z " fill="#15422E" transform="translate(357,295)"/>
<path d="M0 0 C0.33 0.99 0.66 1.98 1 3 C-1.64 5.97 -4.28 8.94 -7 12 C-7.33 11.01 -7.66 10.02 -8 9 C-7.50628906 8.51789062 -7.01257813 8.03578125 -6.50390625 7.5390625 C-5.86324219 6.90742187 -5.22257812 6.27578125 -4.5625 5.625 C-3.92441406 4.99851562 -3.28632813 4.37203125 -2.62890625 3.7265625 C-0.92117824 2.08276939 -0.92117824 2.08276939 0 0 Z " fill="#184531" transform="translate(429,50)"/>
<path d="M0 0 C2.875 -0.1875 2.875 -0.1875 6 0 C6.66 0.99 7.32 1.98 8 3 C7.34 3.66 6.68 4.32 6 5 C5.34 5 4.68 5 4 5 C4 4.34 4 3.68 4 3 C3.34 3 2.68 3 2 3 C2 3.66 2 4.32 2 5 C1.34 5 0.68 5 0 5 C0 3.35 0 1.7 0 0 Z " fill="#1E4B37" transform="translate(329,309)"/>
<path d="M0 0 C0.33 0 0.66 0 1 0 C1.1953125 2.05078125 1.390625 4.1015625 1.5859375 6.15234375 C1.72257812 6.76207031 1.85921875 7.37179688 2 8 C2.66 8.33 3.32 8.66 4 9 C3.01 9.33 2.02 9.66 1 10 C0.67 9.34 0.34 8.68 0 8 C-0.99 7.34 -1.98 6.68 -3 6 C-2.34 6 -1.68 6 -1 6 C-1.0309375 4.7934375 -1.0309375 4.7934375 -1.0625 3.5625 C-1 1 -1 1 0 0 Z " fill="#194632" transform="translate(273,243)"/>
<path d="M0 0 C0.33 0 0.66 0 1 0 C1.66 2.31 2.32 4.62 3 7 C1.02 7 -0.96 7 -3 7 C-3 5.35 -3 3.7 -3 2 C-2.01 2.495 -2.01 2.495 -1 3 C-0.67 2.01 -0.34 1.02 0 0 Z " fill="#184531" transform="translate(312,181)"/>
<path d="M0 0 C0.33 0 0.66 0 1 0 C2.01603857 5.79141983 1.96263236 9.4584498 0 15 C-0.33 15 -0.66 15 -1 15 C-1.09038099 9.84828377 -0.84681133 5.08086796 0 0 Z " fill="#23503C" transform="translate(423,80)"/>
<path d="M0 0 C1.175625 0.5259375 1.175625 0.5259375 2.375 1.0625 C3.674375 1.5265625 3.674375 1.5265625 5 2 C5.66 1.67 6.32 1.34 7 1 C6.67 2.98 6.34 4.96 6 7 C5.67 6.01 5.34 5.02 5 4 C4.01 4 3.02 4 2 4 C1.34 2.68 0.68 1.36 0 0 Z " fill="#1D4A36" transform="translate(422,215)"/>
</svg>
