<?xml version="1.0" encoding="UTF-8"?>
<svg version="1.1" xmlns="http://www.w3.org/2000/svg" width="430" height="960">
<path d="M0 0 C141.9 0 283.8 0 430 0 C430 56.1 430 112.2 430 170 C419.605 168.515 419.605 168.515 409 167 C404.1934558 166.81123665 399.55392286 166.70555768 394.765625 166.8125 C392.2236357 166.83858098 389.68164338 166.86436833 387.13964844 166.88989258 C385.84990112 166.90855377 384.56015381 166.92721497 383.23132324 166.94644165 C360.32003855 167.2546534 337.74625967 167.08031658 315 164 C313.6392807 163.8257164 312.27843635 163.65240691 310.91748047 163.47998047 C296.13335985 161.58775784 281.68895547 159.13862421 267.25 155.375 C227.41653103 145.03736508 189.13841405 147.09672789 150.140625 159.546875 C97.66515147 176.14131908 49.68383793 173.93100212 0 151 C0 101.17 0 51.34 0 0 Z " fill="#103D29" transform="translate(0,0)"/>
<path d="M0 0 C4.55373993 1.50879671 9.1008364 3.0290805 13.62890625 4.61328125 C26.90337624 9.21434412 40.28851056 12.93849284 54 16 C54.8053418 16.18079102 55.61068359 16.36158203 56.44042969 16.54785156 C82.17730355 22.11587201 107.24711066 17.9879997 132.49609375 11.93359375 C138.4516212 10.58580819 144.52687121 9.93371318 150.58178711 9.19506836 C152.66664522 8.94005093 154.75030907 8.67659762 156.83398438 8.41210938 C171.3143449 6.59891267 185.62880121 5.83392913 200.2121582 5.86962891 C202.79840005 5.87497088 205.38446663 5.86965915 207.97070312 5.86328125 C222.83578767 5.85531682 237.52102343 6.23331301 252.1875 8.875 C253.21286865 9.05208496 254.2382373 9.22916992 255.29467773 9.41162109 C261.83297642 10.55811066 268.30340136 11.89724011 274.78125 13.34375 C290.41715863 16.5316537 306.31849098 17.18688428 322.22729492 17.18530273 C324.66668374 17.18748141 327.1056129 17.20569239 329.54492188 17.22460938 C347.51725683 17.46734399 347.51725683 17.46734399 365 14 C386.57724908 10.70080008 408.40754482 11.23616574 430 14 C430 20.27 430 26.54 430 33 C427.14859375 32.505 424.2971875 32.01 421.359375 31.5 C408.65847424 29.54914653 396.0471881 29.76101049 383.23132324 29.94644165 C360.32003855 30.2546534 337.74625967 30.08031658 315 27 C313.6392807 26.8257164 312.27843635 26.65240691 310.91748047 26.47998047 C296.13335985 24.58775784 281.68895547 22.13862421 267.25 18.375 C227.41653103 8.03736508 189.13841405 10.09672789 150.140625 22.546875 C98.36574545 38.91976857 48.9129491 37.57250559 0 14 C0 9.38 0 4.76 0 0 Z " fill="#DCB56E" transform="translate(0,137)"/>
<path d="M0 0 C0.48445669 19.54720649 0.53899174 33.98228579 -13.5 48.875 C-22.12367137 56.96914769 -34.42887778 60.64307716 -46 62 C-50.32853326 51.19610053 -51.04261178 38.48957651 -47.96875 27.21875 C-43.74523952 18.11473851 -36.28962994 10.03027973 -27 6 C-22.77374516 4.70923328 -18.49760532 3.71822996 -14.1875 2.75 C-12.47143555 2.3478125 -12.47143555 2.3478125 -10.72070312 1.9375 C-2.36276307 0 -2.36276307 0 0 0 Z " fill="#204D39" transform="translate(315,77)"/>
<path d="M0 0 C0.83920486 0.0028299 1.67840973 0.00565979 2.54304504 0.00857544 C5.22285228 0.01976865 7.90232506 0.04487149 10.58203125 0.0703125 C12.39908371 0.08034342 14.21614142 0.08946907 16.03320312 0.09765625 C20.487108 0.11970516 24.94076292 0.15422899 29.39453125 0.1953125 C30.16431604 11.87893496 30.16431604 11.87893496 27.4140625 16.58203125 C23.32395833 18.76730036 20.37565248 18.10903618 16.08203125 17.0078125 C15.34146484 16.84216797 14.60089844 16.67652344 13.83789062 16.50585938 C12.0174247 16.09478642 10.20498337 15.64845739 8.39453125 15.1953125 C8.39453125 15.5253125 8.39453125 15.8553125 8.39453125 16.1953125 C13.34453125 17.1853125 18.29453125 18.1753125 23.39453125 19.1953125 C22.644075 22.94759375 21.94228724 25.49194506 20.45703125 28.8828125 C18.38384254 33.89615974 17.25840151 38.85295693 16.39453125 44.1953125 C5.97611864 43.50234469 -4.29789438 41.79657049 -14.60546875 40.1953125 C-15.99863552 39.98136412 -17.39185953 39.76778792 -18.78515625 39.5546875 C-21.72569018 39.10427749 -24.66579318 38.65128408 -27.60546875 38.1953125 C-26.28546875 35.5553125 -24.96546875 32.9153125 -23.60546875 30.1953125 C-14.71294579 29.93333965 -6.35550593 30.5913777 2.39453125 32.1953125 C-5.55499421 30.081077 -13.47126121 28.42121257 -21.60546875 27.1953125 C-19.0588229 22.38498146 -16.61519077 18.87089102 -12.60546875 15.1953125 C-13.87003906 15.845 -13.87003906 15.845 -15.16015625 16.5078125 C-16.25585938 17.0646875 -17.3515625 17.6215625 -18.48046875 18.1953125 C-19.57101562 18.7521875 -20.6615625 19.3090625 -21.78515625 19.8828125 C-24.60546875 21.1953125 -24.60546875 21.1953125 -26.60546875 21.1953125 C-24.52037727 15.39197906 -21.54169229 10.95553134 -16.60546875 7.1953125 C-12.28489141 5.9016082 -8.10156963 5.40778068 -3.60546875 5.1953125 C-6.24546875 4.8653125 -8.88546875 4.5353125 -11.60546875 4.1953125 C-11.60546875 3.5353125 -11.60546875 2.8753125 -11.60546875 2.1953125 C-7.72053713 -0.39464191 -4.49979639 -0.05694292 0 0 Z " fill="#0F3C28" transform="translate(400.60546875,-0.1953125)"/>
<path d="M0 0 C21.78 0 43.56 0 66 0 C62.06741011 3.93258989 59.86559501 5.88890861 55.1875 8.3125 C54.21167969 8.82425781 53.23585938 9.33601562 52.23046875 9.86328125 C51.49441406 10.23839844 50.75835937 10.61351562 50 11 C51.155 11.4125 52.31 11.825 53.5 12.25 C65.35428101 16.70856202 65.35428101 16.70856202 67 20 C64.30072779 19.46014556 62.11079342 18.61198258 59.5625 17.5 C49.22033015 13.14540217 37.3789956 14.15962886 27 18 C22.10335115 20.54454678 18.18728319 22.77983446 16 28 C17.093125 27.773125 18.18625 27.54625 19.3125 27.3125 C24.78267204 26.60667135 29.91966506 27.97322315 35 30 C35.495 30.99 35.495 30.99 36 32 C35.35933594 31.855625 34.71867187 31.71125 34.05859375 31.5625 C26.10234363 29.85504841 19.77275424 29.4619578 12 32 C12.13451758 26.48477942 14.33870009 24.15101336 18.11328125 20.515625 C19.99386082 19.00493168 21.80649374 17.98780414 24 17 C22.85402344 16.93941406 21.70804687 16.87882812 20.52734375 16.81640625 C18.99738703 16.73193011 17.46743959 16.64728573 15.9375 16.5625 C15.18533203 16.52318359 14.43316406 16.48386719 13.65820312 16.44335938 C0.71495126 15.71495126 0.71495126 15.71495126 -1 14 C-1.17024008 8.97791755 -0.84115828 5.04694967 0 0 Z " fill="#295642" transform="translate(271,0)"/>
<path d="M0 0 C8.38201202 12.57301803 9.39519914 29.29708261 10 44 C3.30286734 46.62924467 -2.82245308 47.54572488 -10 48 C-10.33 44.37 -10.66 40.74 -11 37 C-11.66 37 -12.32 37 -13 37 C-12.67 38.2375 -12.34 39.475 -12 40.75 C-11.20108841 43.74591845 -11 45.80107719 -11 49 C-14.465 49.495 -14.465 49.495 -18 50 C-18.08564209 49.42032471 -18.17128418 48.84064941 -18.25952148 48.2434082 C-18.65087717 45.59957725 -19.04417081 42.95603804 -19.4375 40.3125 C-19.57220703 39.40048828 -19.70691406 38.48847656 -19.84570312 37.54882812 C-19.97783203 36.66259766 -20.10996094 35.77636719 -20.24609375 34.86328125 C-20.36654053 34.05157471 -20.4869873 33.23986816 -20.61108398 32.40356445 C-21.01276092 29.92113544 -21.49212777 27.46270121 -22 25 C-20.35 23.68 -18.7 22.36 -17 21 C-16.01 23.97 -15.02 26.94 -14 30 C-14.53233743 24.77010527 -14.53233743 24.77010527 -15.75 19.6875 C-15.8325 19.130625 -15.915 18.57375 -16 18 C-14.6875 16.25 -14.6875 16.25 -13 15 C-12.34 15 -11.68 15 -11 15 C-10.32873871 17.4363189 -9.66283646 19.87388883 -9 22.3125 C-8.80921875 23.00279297 -8.6184375 23.69308594 -8.421875 24.40429688 C-7.62283816 27.35787949 -7 29.92559219 -7 33 C-6.34 33 -5.68 33 -5 33 C-5.37253906 31.75863281 -5.74507813 30.51726562 -6.12890625 29.23828125 C-6.60736065 27.59652594 -7.08519266 25.95458916 -7.5625 24.3125 C-7.80935547 23.49587891 -8.05621094 22.67925781 -8.31054688 21.83789062 C-10.55281583 14.03732116 -10.55281583 14.03732116 -9 10 C-6.9375 8.1875 -6.9375 8.1875 -5 7 C-2.88537268 12.63900619 -1.44060267 18.22310534 -0.3125 24.125 C-0.18125732 24.79337891 -0.05001465 25.46175781 0.08520508 26.15039062 C0.88068246 30.4825679 1.11996382 34.60132647 1 39 C1.66 39 2.32 39 3 39 C2.00788055 29.79678671 0.44326924 21.20894514 -2.1953125 12.33984375 C-2.98639532 9.05646602 -3.26413599 6.36039675 -3 3 C-1.5 1.125 -1.5 1.125 0 0 Z " fill="#103D29" transform="translate(413,71)"/>
<path d="M0 0 C0.83920486 0.0028299 1.67840973 0.00565979 2.54304504 0.00857544 C5.22285228 0.01976865 7.90232506 0.04487149 10.58203125 0.0703125 C12.39908371 0.08034342 14.21614142 0.08946907 16.03320312 0.09765625 C20.487108 0.11970516 24.94076292 0.15422899 29.39453125 0.1953125 C29.39453125 3.8253125 29.39453125 7.4553125 29.39453125 11.1953125 C27.69296875 10.87046875 27.69296875 10.87046875 25.95703125 10.5390625 C24.43626695 10.25743948 22.91542963 9.97621054 21.39453125 9.6953125 C20.65074219 9.55222656 19.90695312 9.40914062 19.140625 9.26171875 C9.98671647 7.59013545 3.97504159 7.71233113 -4.10546875 12.6953125 C-4.8325 13.12457031 -5.55953125 13.55382813 -6.30859375 13.99609375 C-8.0834802 15.04701336 -9.84584274 16.1190364 -11.60546875 17.1953125 C-12.26546875 16.5353125 -12.92546875 15.8753125 -13.60546875 15.1953125 C-14.37632812 15.6284375 -15.1471875 16.0615625 -15.94140625 16.5078125 C-16.94429688 17.0646875 -17.9471875 17.6215625 -18.98046875 18.1953125 C-19.97820312 18.7521875 -20.9759375 19.3090625 -22.00390625 19.8828125 C-24.60546875 21.1953125 -24.60546875 21.1953125 -26.60546875 21.1953125 C-24.52037727 15.39197906 -21.54169229 10.95553134 -16.60546875 7.1953125 C-12.28489141 5.9016082 -8.10156963 5.40778068 -3.60546875 5.1953125 C-6.24546875 4.8653125 -8.88546875 4.5353125 -11.60546875 4.1953125 C-11.60546875 3.5353125 -11.60546875 2.8753125 -11.60546875 2.1953125 C-7.72053713 -0.39464191 -4.49979639 -0.05694292 0 0 Z " fill="#1D4A36" transform="translate(400.60546875,-0.1953125)"/>
<path d="M0 0 C5.28 0 10.56 0 16 0 C17.04976964 3.14930893 17.10131595 5.38814456 17.0625 8.6875 C17.05347656 9.68136719 17.04445313 10.67523438 17.03515625 11.69921875 C17.02355469 12.45847656 17.01195312 13.21773437 17 14 C18.32 14 19.64 14 21 14 C20.67 13.34 20.34 12.68 20 12 C19.960008 10.00039988 19.95653201 7.99952758 20 6 C22.68247184 8.68247184 24 10.12775536 24 14 C31.14145777 14.33216083 39.18704499 13.75726552 45.92578125 11.296875 C49.33064449 10.80954994 52.31985309 12.09142995 55.5 13.1875 C56.16386719 13.39697266 56.82773437 13.60644531 57.51171875 13.82226562 C61.58860735 15.19343474 64.23001717 16.70004596 67 20 C64.30072779 19.46014556 62.11079342 18.61198258 59.5625 17.5 C49.22033015 13.14540217 37.3789956 14.15962886 27 18 C22.10335115 20.54454678 18.18728319 22.77983446 16 28 C17.093125 27.773125 18.18625 27.54625 19.3125 27.3125 C24.78267204 26.60667135 29.91966506 27.97322315 35 30 C35.495 30.99 35.495 30.99 36 32 C35.35933594 31.855625 34.71867187 31.71125 34.05859375 31.5625 C26.10234363 29.85504841 19.77275424 29.4619578 12 32 C12.13451758 26.48477942 14.33870009 24.15101336 18.11328125 20.515625 C19.99386082 19.00493168 21.80649374 17.98780414 24 17 C22.85402344 16.93941406 21.70804687 16.87882812 20.52734375 16.81640625 C18.99738703 16.73193011 17.46743959 16.64728573 15.9375 16.5625 C15.18533203 16.52318359 14.43316406 16.48386719 13.65820312 16.44335938 C0.71495126 15.71495126 0.71495126 15.71495126 -1 14 C-1.17024008 8.97791755 -0.84115828 5.04694967 0 0 Z " fill="#2C5945" transform="translate(271,0)"/>
<path d="M0 0 C2.31 0 4.62 0 7 0 C7.66 1.65 8.32 3.3 9 5 C8.34 5 7.68 5 7 5 C6.896875 6.051875 6.79375 7.10375 6.6875 8.1875 C5.94744281 14.22767265 4.41621193 20.08885454 3 26 C8.28 26 13.56 26 19 26 C19 26.33 19 26.66 19 27 C13.39 27 7.78 27 2 27 C2 29.31 2 31.62 2 34 C1.5625 36.65234375 1.5625 36.65234375 1 38.9375 C0.814375 39.70964844 0.62875 40.48179688 0.4375 41.27734375 C0.293125 41.84582031 0.14875 42.41429687 0 43 C2.64 43.66 5.28 44.32 8 45 C8 45.66 8 46.32 8 47 C4.7 47 1.4 47 -2 47 C-2.32871094 47.67804688 -2.65742188 48.35609375 -2.99609375 49.0546875 C-11.76917227 66.22044005 -11.76917227 66.22044005 -19.2734375 68.7734375 C-20.12808594 68.88558594 -20.12808594 68.88558594 -21 69 C-20.29875 68.319375 -19.5975 67.63875 -18.875 66.9375 C-17.91171413 65.96320514 -16.95386561 64.98351946 -16 64 C-15.19175781 63.16855469 -15.19175781 63.16855469 -14.3671875 62.3203125 C-10.99888748 58.65911682 -9.25221058 56.17031683 -9 51 C-8.34 51.33 -7.68 51.66 -7 52 C-6.505 49.03 -6.505 49.03 -6 46 C-5.34 46 -4.68 46 -4 46 C-4.17402344 45.31550781 -4.34804688 44.63101563 -4.52734375 43.92578125 C-5.07346545 40.54524278 -4.87222669 37.59449357 -4.5625 34.1875 C-4.46066406 33.02605469 -4.35882813 31.86460938 -4.25390625 30.66796875 C-4.17011719 29.78753906 -4.08632813 28.90710938 -4 28 C-2.35 27.67 -0.7 27.34 1 27 C1 26.34 1 25.68 1 25 C-0.65 25.33 -2.3 25.66 -4 26 C-4.29508663 16.9998577 -3.2043477 8.4686332 0 0 Z " fill="#1A4733" transform="translate(361,47)"/>
<path d="M0 0 C4.53376337 4.53376337 4.125 12.01890461 4.125 18.0625 C4.09325784 20.04185071 4.05505272 22.02116044 4 24 C-2.06815522 25.22899346 -7.79895188 26.27560214 -14 26 C-14.33 24.68 -14.66 23.36 -15 22 C-15.66 22 -16.32 22 -17 22 C-16.67 23.65 -16.34 25.3 -16 27 C-19.47325181 28.1577506 -22.36067448 28.06866652 -26 28 C-24.57701102 26.33984619 -23.15344741 24.68024699 -21.7265625 23.0234375 C-20.58425215 21.68471179 -19.45376463 20.3357983 -18.3359375 18.9765625 C-17.55089844 18.02910156 -17.55089844 18.02910156 -16.75 17.0625 C-16.27046875 16.47597656 -15.7909375 15.88945313 -15.296875 15.28515625 C-14 14 -14 14 -12 14 C-12 15.32 -12 16.64 -12 18 C-11.34 18 -10.68 18 -10 18 C-10.226875 17.0925 -10.45375 16.185 -10.6875 15.25 C-11 12 -11 12 -9.6875 9.625 C-8 8 -8 8 -6 8 C-5.34 10.64 -4.68 13.28 -4 16 C-4.13019531 15.26394531 -4.26039063 14.52789062 -4.39453125 13.76953125 C-5.50769595 5.89415108 -5.50769595 5.89415108 -3.953125 3.15625 C-2.5625 1.8125 -2.5625 1.8125 0 0 Z " fill="#103D29" transform="translate(389,98)"/>
<path d="M0 0 C0 0.66 0 1.32 0 2 C-2.64 2 -5.28 2 -8 2 C-8.99 4.97 -9.98 7.94 -11 11 C-9.02 11 -7.04 11 -5 11 C-5 11.66 -5 12.32 -5 13 C-7.31 13.33 -9.62 13.66 -12 14 C-12.33 14.99 -12.66 15.98 -13 17 C-12.113125 16.95875 -11.22625 16.9175 -10.3125 16.875 C-4.4797701 16.85089781 1.26621692 18.03431022 7 19 C7 19.66 7 20.32 7 21 C4.64575325 21.02726927 2.29183038 21.04696719 -0.0625 21.0625 C-2.02896484 21.07990234 -2.02896484 21.07990234 -4.03515625 21.09765625 C-7.8163519 21.00452335 -11.27920707 20.61448726 -15 20 C-14.95875 20.70125 -14.9175 21.4025 -14.875 22.125 C-15 25 -15 25 -15.9375 27.6875 C-17.12482642 31.38916472 -17.67071453 35.03219174 -18.125 38.875 C-18.21136719 39.56335938 -18.29773438 40.25171875 -18.38671875 40.9609375 C-18.59659566 42.63995275 -18.79907087 44.31989048 -19 46 C-16.525 45.505 -16.525 45.505 -14 45 C-14 45.66 -14 46.32 -14 47 C-16.475 47.495 -16.475 47.495 -19 48 C-19.33 52.29 -19.66 56.58 -20 61 C-19.01 61.33 -18.02 61.66 -17 62 C-17.99 62 -18.98 62 -20 62 C-19.67 63.32 -19.34 64.64 -19 66 C-19.66 66 -20.32 66 -21 66 C-20.95875 66.94875 -20.9175 67.8975 -20.875 68.875 C-21 72 -21 72 -23 74 C-29.5562301 54.33130971 -21.40568563 23.015768 -13 5 C-9.72789032 -0.47939722 -5.93070145 -0.50260182 0 0 Z " fill="#2C5945" transform="translate(376,27)"/>
<path d="M0 0 C3.24998112 -0.02909763 6.49992857 -0.04683161 9.75 -0.0625 C10.67039062 -0.07087891 11.59078125 -0.07925781 12.5390625 -0.08789062 C13.42851562 -0.09111328 14.31796875 -0.09433594 15.234375 -0.09765625 C16.05131836 -0.10289307 16.86826172 -0.10812988 17.70996094 -0.11352539 C19.93968135 -0.00299021 21.86133755 0.37944433 24 1 C22.125 4.875 22.125 4.875 21 6 C18.98035801 6.07244053 16.95832876 6.08377188 14.9375 6.0625 C13.28041016 6.04896484 13.28041016 6.04896484 11.58984375 6.03515625 C10.73519531 6.02355469 9.88054687 6.01195313 9 6 C11.64 6.33 14.28 6.66 17 7 C17 7.99 17 8.98 17 10 C16.38125 10.2475 15.7625 10.495 15.125 10.75 C12.90268805 11.79781789 12.90268805 11.79781789 12.125 13.75 C10.45644042 17.08711916 7.88509128 19.64802342 5 22 C4.34 22 3.68 22 3 22 C1.13905228 14.6802723 0.44238385 7.53216715 0 0 Z " fill="#113E2A" transform="translate(356,101)"/>
<path d="M0 0 C2.25742374 2.78670671 3.65112366 5.32454774 4.875 8.6875 C6.21776154 12.25600634 7.75716972 15.29459571 9.8125 18.5 C12.22813829 22.72000226 12.18843752 25.44251461 11.3984375 30.16015625 C10.61714721 35.72876449 10.9272173 41.38764488 11 47 C8.525 47.495 8.525 47.495 6 48 C5.97421875 47.11441406 5.9484375 46.22882813 5.921875 45.31640625 C5.31524827 32.06712689 2.86772332 19.40913582 -2.4609375 7.19921875 C-3 5 -3 5 -2.1640625 2.76953125 C-1 1 -1 1 0 0 Z " fill="#103D29" transform="translate(418,66)"/>
<path d="M0 0 C5.28 0 10.56 0 16 0 C16 4.29 16 8.58 16 13 C7.125 14 7.125 14 6 14 C5.67 12.02 5.34 10.04 5 8 C5 9.98 5 11.96 5 14 C3.68 14 2.36 14 1 14 C0.67 9.38 0.34 4.76 0 0 Z " fill="#113E2A" transform="translate(287,0)"/>
<path d="M0 0 C4.62 0 9.24 0 14 0 C14.29296875 6.8359375 14.29296875 6.8359375 14 9 C9.51581607 11.98945595 5.34658811 11.62259378 0 12 C0 8.04 0 4.08 0 0 Z " fill="#0F3C28" transform="translate(304,0)"/>
<path d="M0 0 C7.51737452 3.03474903 7.51737452 3.03474903 9 6 C6.30072779 5.46014556 4.11079342 4.61198258 1.5625 3.5 C-8.77966985 -0.85459783 -20.6210044 0.15962886 -31 4 C-35.89664885 6.54454678 -39.81271681 8.77983446 -42 14 C-40.906875 13.773125 -39.81375 13.54625 -38.6875 13.3125 C-33.21732796 12.60667135 -28.08033494 13.97322315 -23 16 C-22.67 16.66 -22.34 17.32 -22 18 C-22.64066406 17.855625 -23.28132813 17.71125 -23.94140625 17.5625 C-31.89765637 15.85504841 -38.22724576 15.4619578 -46 18 C-45.89836162 13.8328264 -44.88498798 11.44121007 -42.125 8.4375 C-34.81358649 1.72051035 -26.31154394 -0.49208752 -16.65234375 -1.640625 C-10.29866991 -2.5015057 -6.49502925 -1.99472808 0 0 Z " fill="#194632" transform="translate(329,14)"/>
<path d="M0 0 C1.175625 0.0309375 1.175625 0.0309375 2.375 0.0625 C2.375 0.7225 2.375 1.3825 2.375 2.0625 C-1.39394142 4.0452851 -5.16546653 6.02310441 -8.9375 8 C-10.5452832 8.84594727 -10.5452832 8.84594727 -12.18554688 9.70898438 C-13.21357422 10.24716797 -14.24160156 10.78535156 -15.30078125 11.33984375 C-16.7225769 12.08609009 -16.7225769 12.08609009 -18.1730957 12.84741211 C-20.625 14.0625 -20.625 14.0625 -23.625 15.0625 C-21.57515175 9.28192793 -18.41015431 4.91764924 -13.625 1.0625 C-9.10855316 -0.36191785 -4.68159687 0.08071719 0 0 Z " fill="#103D29" transform="translate(397.625,5.9375)"/>
<path d="M0 0 C1.4540625 0.0309375 1.4540625 0.0309375 2.9375 0.0625 C2.80472656 0.91972656 2.67195313 1.77695312 2.53515625 2.66015625 C1.63980552 8.45706209 0.74811436 14.25309708 -0.0625 20.0625 C-2.0425 20.3925 -4.0225 20.7225 -6.0625 21.0625 C-6.28801601 14.1842616 -5.70198157 7.76403052 -4.0625 1.0625 C-3.0625 0.0625 -3.0625 0.0625 0 0 Z " fill="#113E2A" transform="translate(363.0625,51.9375)"/>
<path d="M0 0 C-0.33 0.66 -0.66 1.32 -1 2 C-1.66 2 -2.32 2 -3 2 C-3 2.66 -3 3.32 -3 4 C-1.2365625 3.9690625 -1.2365625 3.9690625 0.5625 3.9375 C4.47413467 3.93052739 8.14497944 4.35749657 12 5 C12 5.33 12 5.66 12 6 C11.44650879 5.99774414 10.89301758 5.99548828 10.32275391 5.99316406 C-1.4100144 5.75484346 -1.4100144 5.75484346 -11.51953125 10.69921875 C-14.81052427 14.39121989 -17.43046718 18.29140153 -19 23 C-21.5625 24.1875 -21.5625 24.1875 -24 25 C-22.68852634 21.30579944 -21.09952054 18.59351751 -18.625 15.5625 C-16.56210092 12.9976997 -14.70551583 10.53596434 -12.9375 7.75 C-9.63838711 3.06738816 -6.19945441 -0.91168447 0 0 Z " fill="#1C4935" transform="translate(392,0)"/>
<path d="M0 0 C1.10228696 4.40914783 1.07654536 8.48382401 1 13 C-3.29 12.67 -7.58 12.34 -12 12 C-9.88622902 7.77245805 -9.772855 7.825575 -6 6 C-5.67 5.01 -5.34 4.02 -5 3 C-2.44444444 0 -2.44444444 0 0 0 Z " fill="#13402C" transform="translate(286,1)"/>
<path d="M0 0 C0.33 1.32 0.66 2.64 1 4 C2.65 3.67 4.3 3.34 6 3 C6 3.66 6 4.32 6 5 C4.35 5.33 2.7 5.66 1 6 C0.67 10.29 0.34 14.58 0 19 C0.99 19.33 1.98 19.66 3 20 C2.01 20 1.02 20 0 20 C0.33 21.32 0.66 22.64 1 24 C0.34 24 -0.32 24 -1 24 C-0.938125 25.423125 -0.938125 25.423125 -0.875 26.875 C-1 30 -1 30 -3 32 C-3.96088383 29.11734851 -4.11670941 27.32337729 -4.09765625 24.33203125 C-4.09443359 23.43935547 -4.09121094 22.54667969 -4.08789062 21.62695312 C-4.07951172 20.69818359 -4.07113281 19.76941406 -4.0625 18.8125 C-4.05798828 17.87212891 -4.05347656 16.93175781 -4.04882812 15.96289062 C-4.03704626 13.64186288 -4.02059558 11.32096356 -4 9 C-3.67 9 -3.34 9 -3 9 C-2.67 10.98 -2.34 12.96 -2 15 C-1.34 10.05 -0.68 5.1 0 0 Z " fill="#23503C" transform="translate(356,69)"/>
<path d="M0 0 C0.99 0 1.98 0 3 0 C4.04976964 3.14930893 4.10131595 5.38814456 4.0625 8.6875 C4.05347656 9.68136719 4.04445313 10.67523438 4.03515625 11.69921875 C4.02355469 12.45847656 4.01195312 13.21773437 4 14 C5.32 14 6.64 14 8 14 C7.67 13.34 7.34 12.68 7 12 C6.960008 10.00039988 6.95653201 7.99952758 7 6 C9.68247184 8.68247184 11 10.12775536 11 14 C12.98 14 14.96 14 17 14 C16.67 14.66 16.34 15.32 16 16 C12.41673499 16.05814085 8.83359162 16.09364357 5.25 16.125 C4.23421875 16.14175781 3.2184375 16.15851562 2.171875 16.17578125 C1.1921875 16.18222656 0.2125 16.18867188 -0.796875 16.1953125 C-2.14797363 16.21102295 -2.14797363 16.21102295 -3.52636719 16.22705078 C-6.13926856 15.98721676 -7.75664666 15.32312064 -10 14 C-10 13.67 -10 13.34 -10 13 C-5.71 13.33 -1.42 13.66 3 14 C2.87625 11.875625 2.7525 9.75125 2.625 7.5625 C2.55539062 6.36753906 2.48578125 5.17257812 2.4140625 3.94140625 C2.27742188 2.97074219 2.14078125 2.00007812 2 1 C1.34 0.67 0.68 0.34 0 0 Z " fill="#2A5743" transform="translate(284,0)"/>
<path d="M0 0 C0.97582031 0.20367187 1.95164062 0.40734375 2.95703125 0.6171875 C3.69308594 0.78476562 4.42914063 0.95234375 5.1875 1.125 C5.1875 3.105 5.1875 5.085 5.1875 7.125 C-1.38784861 6.50468409 -7.47942592 4.97602717 -13.8125 3.125 C-8.84953911 -0.1836406 -5.90645706 -1.2809184 0 0 Z " fill="#103D29" transform="translate(424.8125,1.875)"/>
<path d="M0 0 C1.62490954 -0.02698189 3.24994633 -0.04638757 4.875 -0.0625 C6.23238281 -0.07990234 6.23238281 -0.07990234 7.6171875 -0.09765625 C10 0 10 0 12 1 C12 1.66 12 2.32 12 3 C8.7 3 5.4 3 2 3 C1.67128906 3.67804688 1.34257812 4.35609375 1.00390625 5.0546875 C-7.76917227 22.22044005 -7.76917227 22.22044005 -15.2734375 24.7734375 C-15.84320313 24.84820312 -16.41296875 24.92296875 -17 25 C-15.948125 23.9790625 -15.948125 23.9790625 -14.875 22.9375 C-13.91171413 21.96320514 -12.95386561 20.98351946 -12 20 C-11.46117187 19.44570312 -10.92234375 18.89140625 -10.3671875 18.3203125 C-6.99888748 14.65911682 -5.25221058 12.17031683 -5 7 C-4.34 7.33 -3.68 7.66 -3 8 C-2.67 6.02 -2.34 4.04 -2 2 C-1.34 2 -0.68 2 0 2 C0 1.34 0 0.68 0 0 Z " fill="#204D39" transform="translate(357,91)"/>
<path d="M0 0 C11.25633173 -0.55460029 21.93937329 1.10715549 33 3 C34.1446875 3.18949219 35.289375 3.37898438 36.46875 3.57421875 C38.66201313 3.96812377 40.83610791 4.46789539 43 5 C43.495 5.99 43.495 5.99 44 7 C29.2966301 5.2648197 14.65164359 3.12177048 0 1 C0 0.67 0 0.34 0 0 Z " fill="#2B5844" transform="translate(373,39)"/>
<path d="M0 0 C2.31 0 4.62 0 7 0 C5.94124926 3.40312738 4.99097846 6.01353231 3 9 C-0.125 9.1875 -0.125 9.1875 -3 9 C-2.44271087 5.65626525 -1.64826111 2.96687001 0 0 Z " fill="#113E2A" transform="translate(368,29)"/>
<path d="M0 0 C1.54300781 -0.00773437 1.54300781 -0.00773437 3.1171875 -0.015625 C6.161282 0.25320412 8.3684535 0.96835846 11.125 2.25 C11.125 2.58 11.125 2.91 11.125 3.25 C6.84202469 4.30619003 2.69514354 4.36702092 -1.6875 4.3125 C-2.38037109 4.30798828 -3.07324219 4.30347656 -3.78710938 4.29882812 C-5.48311068 4.28713156 -7.17906703 4.26919924 -8.875 4.25 C-8.875 3.59 -8.875 2.93 -8.875 2.25 C-5.43560073 -0.04293284 -4.04937319 -0.02019638 0 0 Z " fill="#0F3C28" transform="translate(397.875,-0.25)"/>
<path d="M0 0 C1.32 0.33 2.64 0.66 4 1 C3.28972656 1.83144531 2.57945312 2.66289062 1.84765625 3.51953125 C0.91903734 4.61698997 -0.00933527 5.71465713 -0.9375 6.8125 C-1.40607422 7.35970703 -1.87464844 7.90691406 -2.35742188 8.47070312 C-4.46469483 10.97214225 -5.95567636 12.86702907 -7 16 C-9.5625 17.1875 -9.5625 17.1875 -12 18 C-10.67692317 14.26773849 -9.04826781 11.51129891 -6.5625 8.4375 C-5.96566406 7.69371094 -5.36882812 6.94992188 -4.75390625 6.18359375 C-4.17511719 5.46300781 -3.59632813 4.74242187 -3 4 C-1.99453651 2.67078183 -0.9926992 1.33877783 0 0 Z " fill="#2E5B47" transform="translate(380,7)"/>
<path d="M0 0 C3.3 0 6.6 0 10 0 C10 1.65 10 3.3 10 5 C4.375 8 4.375 8 1 8 C0.67 5.36 0.34 2.72 0 0 Z " fill="#123F2B" transform="translate(319,0)"/>
<path d="M0 0 C-0.66 3.96 -1.32 7.92 -2 12 C-3.32 12.33 -4.64 12.66 -6 13 C-5.67 9.04 -5.34 5.08 -5 1 C-2 0 -2 0 0 0 Z " fill="#0F3C28" transform="translate(362,74)"/>
<path d="M0 0 C8.69821697 -0.37879332 16.73832134 0.02306455 25 3 C25.66 3.66 26.32 4.32 27 5 C17.88310149 4.27643663 8.98361723 2.65707093 0 1 C0 0.67 0 0.34 0 0 Z " fill="#2A5743" transform="translate(378,28)"/>
<path d="M0 0 C2.97 0 5.94 0 9 0 C2.71428571 7.57142857 2.71428571 7.57142857 -1 10 C-1.09978121 6.50765756 -0.77842938 3.40562852 0 0 Z " fill="#123F2B" transform="translate(273,0)"/>
<path d="M0 0 C1.85431641 0.29197266 1.85431641 0.29197266 3.74609375 0.58984375 C4.67550781 0.74582031 5.60492188 0.90179688 6.5625 1.0625 C6.5625 1.7225 6.5625 2.3825 6.5625 3.0625 C4.18718606 3.1168965 1.81314117 3.15635864 -0.5625 3.1875 C-1.22765625 3.20425781 -1.8928125 3.22101562 -2.578125 3.23828125 C-6.93266056 3.28097278 -10.39350114 2.66246217 -14.4375 1.0625 C-14.4375 0.7325 -14.4375 0.4025 -14.4375 0.0625 C-9.32506818 -0.87839801 -5.12342064 -0.8295062 0 0 Z " fill="#275440" transform="translate(376.4375,44.9375)"/>
<path d="M0 0 C5.28 0.99 10.56 1.98 16 3 C16 3.66 16 4.32 16 5 C10.6496441 4.42978066 5.32212148 3.79265639 0 3 C0 2.01 0 1.02 0 0 Z " fill="#275440" transform="translate(409,14)"/>
<path d="M0 0 C1.98 0 3.96 0 6 0 C5.67 1.65 5.34 3.3 5 5 C2.69 5 0.38 5 -2 5 C-1.34 3.35 -0.68 1.7 0 0 Z " fill="#103D29" transform="translate(364,40)"/>
<path d="M0 0 C0.33 0.99 0.66 1.98 1 3 C-0.40580276 4.65512248 -1.82506266 6.29882206 -3.25 7.9375 C-4.03890625 8.85402344 -4.8278125 9.77054688 -5.640625 10.71484375 C-7.91251033 12.91526249 -8.92319022 13.66832555 -12 14 C-11.319375 13.360625 -10.63875 12.72125 -9.9375 12.0625 C-6.22657527 8.37290243 -3.1498651 4.16653626 0 0 Z " fill="#194632" transform="translate(352,102)"/>
<path d="M0 0 C5.4185766 -0.22577402 9.77487721 0.53329887 15 2 C15 2.66 15 3.32 15 4 C12.68613705 3.71935082 10.37390992 3.42518311 8.0625 3.125 C6.77472656 2.96257813 5.48695313 2.80015625 4.16015625 2.6328125 C3.11730469 2.42398438 2.07445312 2.21515625 1 2 C0.67 1.34 0.34 0.68 0 0 Z " fill="#2A5743" transform="translate(402,53)"/>
<path d="M0 0 C4.62 0.66 9.24 1.32 14 2 C13.34 3.32 12.68 4.64 12 6 C11.67 5.34 11.34 4.68 11 4 C8.68149993 3.38567131 8.68149993 3.38567131 6 3 C3.25 2.5625 3.25 2.5625 1 2 C0.67 1.34 0.34 0.68 0 0 Z " fill="#184531" transform="translate(367,3)"/>
<path d="M0 0 C0.99 0.33 1.98 0.66 3 1 C3 1.66 3 2.32 3 3 C2.34 3 1.68 3 1 3 C1.04125 3.94875 1.0825 4.8975 1.125 5.875 C1 9 1 9 -1 11 C-1.0270043 9.54176788 -1.04639787 8.08339325 -1.0625 6.625 C-1.07410156 5.81289062 -1.08570313 5.00078125 -1.09765625 4.1640625 C-1 2 -1 2 0 0 Z " fill="#2E5B47" transform="translate(354,90)"/>
<path d="M0 0 C2.97 0 5.94 0 9 0 C9 0.99 9 1.98 9 3 C6.03 2.67 3.06 2.34 0 2 C0 1.34 0 0.68 0 0 Z " fill="#24513D" transform="translate(421,0)"/>
<path d="M0 0 C0.7425 0.0825 1.485 0.165 2.25 0.25 C0 2.8125 0 2.8125 -2.75 5.25 C-5.0625 5.0625 -5.0625 5.0625 -6.75 4.25 C-3.42692308 0.31153846 -3.42692308 0.31153846 0 0 Z " fill="#2C5945" transform="translate(389.75,-0.25)"/>
<path d="M0 0 C2.31 0 4.62 0 7 0 C5.1875 2 5.1875 2 3 4 C2.01 4 1.02 4 0 4 C0 2.68 0 1.36 0 0 Z " fill="#214E3A" transform="translate(330,0)"/>
<path d="M0 0 C-0.33 0.99 -0.66 1.98 -1 3 C-3.31 3 -5.62 3 -8 3 C-4.93882432 0.37613513 -4.26826873 0 0 0 Z " fill="#103D29" transform="translate(378,24)"/>
</svg>
